<svg width="43" height="35" viewBox="0 0 43 35" fill="none" xmlns="http://www.w3.org/2000/svg">
<path d="M19.9914 0.0839195C20.5028 0.0876452 21.1503 0.0776726 21.5403 0.0950965C23.1627 0.109999 24.8165 0.0436093 26.4384 0.0776725C27.5425 0.0909785 28.5071 0.0670278 29.6113 0.0776725C31.914 0.102667 35.4508 0.0450139 38.1139 0.0617493C38.5857 0.0647138 38.809 0.64053 38.468 0.968564L28.2625 10.7835C27.7705 11.2566 27.1193 11.5207 26.4388 11.5207C23.9719 11.5207 17.7607 11.5207 14.011 11.5207C14.011 13.4527 14.011 15.3847 14.011 17.3753C13.1385 17.1996 12.266 17.024 11.367 16.843C10.8435 17.0187 10.3199 17.1943 9.78054 17.3753C9.78054 15.4432 9.78054 13.5112 9.78054 11.5207C8.00153 11.6699 6.22252 11.8191 4.40461 11.9716C3.85645 12.0175 3.43479 12.4787 3.43479 13.0324C3.43479 15.0173 3.43479 17.0078 3.43479 19.038C3.43479 19.5995 3.86806 20.0646 4.4249 20.0985C7.40349 20.2799 10.3797 20.4128 13.3632 20.5043C14.4859 20.5469 15.6081 20.6049 16.7291 20.6789C25.2623 20.7823 28.1431 20.8172 29.1156 20.829C29.4396 20.8329 29.7081 20.6949 29.8935 20.4275C30.9472 18.9079 34.6699 13.5543 36.2212 11.5207C37.6922 9.65857 38.5381 8.69164 38.9808 8.2149C39.2399 7.93587 39.6023 7.79608 39.9818 7.79749C40.1079 7.79795 40.2471 7.79842 40.392 7.79884C41.2912 7.80141 42.0384 8.54686 42.0384 9.45183V22.3958C42.0384 23.2685 41.6835 24.1032 41.0563 24.7058L31.538 33.8503C30.8066 34.553 29.8493 34.9677 28.8383 34.9837C28.0129 34.9968 27.1329 35.001 26.6053 34.9998C26.0336 34.9998 25.462 34.9998 24.8734 34.9998C23.9443 34.9955 23.9443 34.9955 22.9972 34.9913C22.3647 34.9907 21.7322 34.9897 21.0807 34.9892C19.0549 34.986 17.029 34.979 15.0026 34.9727C13.6319 34.97 12.2612 34.9673 10.89 34.9652C7.52357 34.9594 4.15715 34.9503 0.790724 34.9391C1.78225 32.8767 1.78225 32.8767 2.37716 32.2779C3.20476 32.213 4.03499 32.1832 4.8647 32.1688C5.39404 32.1582 5.92338 32.1475 6.46859 32.1369C7.04446 32.1279 7.61981 32.1188 8.21314 32.1098C8.79907 32.0986 9.38499 32.0874 9.98889 32.0762C11.8694 32.0411 13.7503 32.0097 15.6308 31.9788C16.9021 31.9559 18.1739 31.9325 19.4451 31.9091C22.2227 31.8585 25.0002 31.8099 27.7777 31.7631C28.3549 31.7534 28.8178 31.2798 28.8178 30.6987C28.8178 28.7544 28.8178 26.8044 28.8178 24.8165C28.8178 24.2326 28.3504 23.7576 27.7703 23.7518C27.3424 23.7475 26.9113 23.7431 26.4731 23.7387C23.6032 23.7078 20.7333 23.6669 17.8634 23.6227C16.6213 23.6051 15.3791 23.5902 14.1364 23.578C12.3511 23.5599 10.5664 23.5322 8.78109 23.5024C7.94715 23.4971 7.94715 23.4971 7.09629 23.4923C6.57805 23.4816 6.05929 23.471 5.52518 23.4604C5.20441 23.4562 4.88364 23.4519 4.55826 23.4476C4.28282 23.444 4.00768 23.4206 3.7371 23.3686C2.75501 23.1799 1.99505 22.9396 1.24456 22.4137C0.744985 22.0636 0.412816 21.5207 0.289093 20.9208C-0.0532526 19.2609 0.0976127 17.5582 0.0636059 15.8451C0.0440398 15.4688 0.0244723 15.092 0.00384859 14.704C-0.0214655 13.1915 0.0655757 12.2376 0.644502 11.1702C1.05071 10.4212 1.68728 9.8331 2.3543 9.30644C3.81665 8.15181 5.29274 7.02418 6.80597 5.93215C7.3094 5.56491 7.3094 5.56491 7.82235 5.19021C8.82551 4.45839 10.8384 3.00498 10.8384 3.00498C11.0885 2.78304 11.3384 2.56042 11.596 2.33103C15.0689 -0.454566 16.5573 -0.0124156 19.9914 0.0839195Z" fill="#2C3545"/>
<path d="M9.78078 11.5813C11.1768 11.5813 12.5729 11.5813 14.0113 11.5813C14.0113 13.5133 14.0113 15.4454 14.0113 17.4359C13.1387 17.2603 12.2662 17.0847 11.3672 16.9037C10.8437 17.0793 10.3202 17.255 9.78078 17.4359C9.78078 15.5039 9.78078 13.5719 9.78078 11.5813Z" fill="#ED5735"/>
</svg>
