<svg width="20" height="20" viewBox="0 0 20 20" fill="none" xmlns="http://www.w3.org/2000/svg">
<path d="M5.94059 9.23416C5.63725 8.90083 5.18224 8.93083 4.97058 9.325L0.0571923 19.1509C-0.124476 19.5451 0.148027 20.0001 0.573031 20.0001H7.39643C7.60894 20.0001 7.82061 19.8784 7.91227 19.6668C9.39812 16.6342 8.51811 11.9942 5.94059 9.23416Z" fill="#2C3545"/>
<path d="M9.51996 0.318128C6.79076 4.65484 6.97243 9.47656 8.76162 13.0858C10.5808 16.695 11.9458 19.485 12.0675 19.6667C12.1583 19.8792 12.3708 20 12.5833 20H19.4067C19.8309 20 20.1342 19.545 19.9226 19.1508C19.9226 19.1508 10.7333 0.773133 10.4908 0.318128C10.3083 -0.106043 9.79246 -0.106043 9.51996 0.318128Z" fill="#2C3545"/>
</svg>
