<svg width="18" height="20" viewBox="0 0 18 20" fill="none" xmlns="http://www.w3.org/2000/svg">
<path d="M15.1785 14.4358C12.8741 15.823 10.9978 16.4584 10.6479 16.5711L8.66618 17.2038L6.68632 16.572C6.33452 16.4584 4.46011 15.8248 2.15299 14.4367C1.50758 14.0495 0.66946 14.2576 0.281305 14.9021C-0.10685 15.5475 0.101317 16.3847 0.746728 16.7738C3.24746 18.2792 5.28732 18.9882 5.85456 19.17L8.25076 19.9354C8.38529 19.9781 8.52619 20 8.66618 20C8.80617 20 8.94616 19.9781 9.08161 19.9354L11.4796 19.17C12.045 18.9882 14.0867 18.2783 16.5847 16.7747C17.2301 16.3866 17.4374 15.5484 17.0501 14.903C16.662 14.2576 15.823 14.0504 15.1785 14.4376V14.4358Z" fill="#2C3545"/>
<path d="M15.0839 9.81247C14.8148 10.007 14.5249 10.2106 14.214 10.4233C11.7814 12.0896 9.67883 12.7904 9.44885 12.865L8.66617 13.115L7.88532 12.865C7.65442 12.7914 5.5573 12.0941 3.11837 10.4233C2.80748 10.2106 2.51841 10.007 2.24843 9.81247C1.63757 9.37159 0.784897 9.50885 0.344927 10.1197C-0.0959519 10.7297 0.0422204 11.5823 0.652178 12.0232C0.938522 12.2305 1.24759 12.4477 1.57757 12.6732C4.27829 14.5231 6.61268 15.3203 7.05356 15.4612L8.25075 15.8439C8.38528 15.8866 8.52527 15.9084 8.66617 15.9084C8.80707 15.9084 8.94615 15.8866 9.0816 15.8439L10.2815 15.4612C10.7224 15.3194 13.0613 14.5176 15.7548 12.6732C16.0857 12.4468 16.3938 12.2296 16.6811 12.0232C17.2919 11.5823 17.4292 10.7297 16.9883 10.1197C16.5474 9.50795 15.6948 9.3725 15.0848 9.81247H15.0839Z" fill="#2C3545"/>
<path d="M0.463604 7.02361C0.510874 7.06724 1.62989 8.10444 3.7352 9.54525C6.08958 11.1579 8.13126 11.8206 8.21671 11.8478C8.36306 11.8942 8.51396 11.9178 8.66577 11.9178C8.81758 11.9178 8.96847 11.8942 9.11483 11.8478C9.20028 11.8206 11.242 11.1588 13.5963 9.54525C15.7007 8.10444 16.8207 7.06724 16.8679 7.02361C17.1643 6.74726 17.3324 6.36184 17.3324 5.95823C17.3324 5.55462 17.1643 5.16828 16.867 4.89285C16.8216 4.84921 15.7007 3.81292 13.5963 2.37211C11.241 0.758584 9.20028 0.0968115 9.11483 0.0695407C8.82212 -0.0231802 8.50941 -0.0231802 8.21671 0.0695407C8.13126 0.0968115 6.08958 0.758584 3.7352 2.37211C1.6308 3.81292 0.510874 4.85012 0.464513 4.89285C0.16817 5.16919 0 5.55462 0 5.95823C0 6.36184 0.167261 6.74726 0.463604 7.02361Z" fill="#2C3545"/>
</svg>
