<svg width="20" height="20" viewBox="0 0 20 20" fill="none" xmlns="http://www.w3.org/2000/svg">
<path opacity="0.5" d="M11.7343 4.65503L7.18848 9.20003L7.50014 12.5L10.7993 12.8117L15.3451 8.26586L11.7343 4.65503Z" fill="#2C3545"/>
<path opacity="0.5" d="M13.3335 13.3016L15.556 12.1899L16.6668 9.96826L17.7777 12.1899L20.0002 13.3016L17.7777 14.4124L16.6668 16.6349L15.556 14.4124L13.3335 13.3016Z" fill="#2C3545"/>
<path opacity="0.5" d="M3.3335 3.33333L5.55599 2.2225L6.66683 0L7.77766 2.2225L10.0002 3.33333L7.77766 4.44416L6.66683 6.66666L5.55599 4.44416L3.3335 3.33333Z" fill="#2C3545"/>
<path opacity="0.5" d="M14.1665 2.91666L16.1107 1.94417L17.0832 0L18.0557 1.94417L19.9998 2.91666L18.0557 3.88916L17.0832 5.83333L16.1107 3.88916L14.1665 2.91666Z" fill="#2C3545"/>
<path d="M0.7475 15.6409C0.265833 16.1234 0 16.7643 0 17.4468C0 18.1293 0.265833 18.7701 0.7475 19.2526C1.22917 19.7351 1.87083 20.0001 2.55333 20.0001C3.23583 20.0001 3.87666 19.7343 4.35916 19.2526L10.8 12.8118L7.18916 9.20093L0.7475 15.6409Z" fill="#2C3545"/>
</svg>
