<svg width="528" height="430" viewBox="0 0 528 430" fill="none" xmlns="http://www.w3.org/2000/svg">
<path d="M490.378 240.408L467.396 188.239L405.233 215.625L390.526 182.228L383.033 20.7175L428.513 0.679199L489.678 139.527L509.387 130.851L523.734 163.414L504.025 172.101L527.017 224.27L490.378 240.408ZM421.71 169.476L453.039 155.665L411.212 60.7118L421.71 169.476Z" fill="#43587E"/>
<path d="M490.11 241.087L467.128 188.918L404.975 216.305L390.011 182.249L382.467 20.3882L428.78 0L428.996 0.473426L489.955 138.848L509.654 130.141L524.412 163.651L504.704 172.338L527.696 224.507L490.11 241.087ZM467.653 187.57L467.859 188.043L490.634 239.749L526.337 224.023L503.355 171.844L523.054 163.168L509.119 131.53L489.42 140.217L489.204 139.743L428.245 1.35853L383.558 21.0469L391.03 182.105L405.5 214.946L467.653 187.57ZM421.267 170.279L410.389 57.5728L453.717 155.932L421.267 170.279ZM412.005 63.9023L422.132 168.766L452.338 155.459L412.005 63.9023Z" fill="#43587E"/>
<path d="M485.386 242.683L462.405 190.513L400.242 217.89L385.555 184.493L378.042 22.9821L423.522 2.9541L484.687 141.802L504.395 133.116L518.742 165.689L499.044 174.396L522.025 226.576L485.386 242.683ZM416.719 171.741L448.047 157.929L406.221 62.9764L416.719 171.741Z" fill="#ED5735"/>
<path d="M485.119 243.352L462.137 191.182L399.964 218.569L384.999 184.513L377.486 22.6523L423.8 2.27441L424.016 2.73755L484.975 141.122L504.684 132.436L519.442 165.946L499.733 174.633L522.725 226.802L485.119 243.352ZM462.662 189.834L462.868 190.307L485.644 242.003L521.346 226.277L498.365 174.108L518.073 165.421L504.138 133.794L484.429 142.491L484.213 142.028L423.254 3.63295L378.567 23.311L386.039 184.369L400.509 217.21L462.662 189.834ZM416.276 172.502L405.398 59.8472L448.727 158.196L416.276 172.502ZM407.014 66.115L417.141 170.979L447.348 157.672L407.014 66.115Z" fill="#43587E"/>
<path d="M424.242 269.081C424.242 269.081 420.578 293.566 421.957 301.809C423.336 310.053 441.635 346.661 441.635 346.661V351.694L427.669 358.559L431.786 367.935L437.508 366.566L432.012 392.656L443.909 395.167L459.244 361.76C459.244 361.76 485.787 353.526 486.24 351.468C486.693 349.409 481.897 317.597 481.897 317.597C481.897 317.597 475.948 288.78 472.058 279.157C469.487 272.905 466.588 266.793 463.371 260.848L424.242 269.081Z" fill="#43587E"/>
<path d="M444.219 395.754L431.416 393.047L436.84 367.256L431.499 368.542L427.001 358.312L441.132 351.416V346.816C439.825 344.212 422.802 310.012 421.454 301.933C420.105 293.854 423.594 270.028 423.749 269.05V268.7L424.099 268.618L463.599 260.302L463.784 260.642C467.005 266.608 469.915 272.736 472.501 279.003C476.371 288.543 482.31 317.247 482.371 317.535C482.865 320.829 487.178 349.523 486.714 351.612C486.251 353.701 467.808 359.65 459.657 362.182L444.219 395.754ZM432.631 392.254L443.622 394.58L458.885 361.338L459.101 361.266C471.452 357.427 485.037 352.631 485.768 351.313C486.076 349.914 483.328 330.421 481.404 317.669C481.342 317.412 475.414 288.852 471.585 279.342C469.067 273.228 466.236 267.248 463.105 261.424L424.665 269.513C424.232 272.55 421.176 294.214 422.431 301.727C423.78 309.786 441.883 346.065 442.058 346.425L442.12 346.538V352.013L428.318 358.796L432.065 367.338L438.157 365.876L432.631 392.254Z" fill="#43587E"/>
<path d="M444.136 351.931L443.704 350.994L460.655 343.193L446.74 307.264L437.827 304.588L438.115 303.6L447.512 306.42L461.962 343.718L444.136 351.931Z" fill="white"/>
<path d="M456.651 362.349L440.867 365.558L441.072 366.566L456.856 363.358L456.651 362.349Z" fill="white"/>
<path d="M411.109 208.956L398.327 218.929L395.239 212.754L386.717 217.54C386.717 217.54 386.398 244.556 388.683 245.647C390.968 246.738 419.013 230.209 419.013 230.209C419.013 230.209 420.886 259.942 420.423 264.388C419.96 268.834 422.996 270.944 425.106 270.707C427.216 270.471 467.004 265.325 467.941 264.162C469.138 262.37 469.639 260.204 469.351 258.069C468.877 256.196 460.222 223.653 460.222 223.653C460.222 223.653 483.893 227.399 484.799 225.3C485.705 223.2 492.755 203.059 492.755 203.059L480.816 200.249L476.37 207.032C476.37 207.032 450.856 196.503 442.664 196.503C434.472 196.503 413.682 207.083 411.109 208.956Z" fill="white"/>
<path d="M424.819 271.294C423.615 271.26 422.473 270.753 421.639 269.884C420.961 269.155 420.458 268.281 420.168 267.329C419.877 266.377 419.806 265.372 419.961 264.388C420.373 260.447 418.932 235.983 418.602 231.135C411.244 235.437 390.814 247.191 388.519 246.11C386.224 245.029 386.183 223.952 386.255 217.54V217.241L395.518 212.034L398.513 218.137L410.811 208.545C413.477 206.6 434.483 196.04 442.716 196.04C450.456 196.04 472.851 205.066 476.227 206.455L480.642 199.714L493.486 202.74L493.301 203.275C493.013 204.099 486.251 223.458 485.325 225.557C484.398 227.657 468.57 225.557 460.974 224.343C462.281 229.262 469.475 256.248 469.897 257.997C470.23 260.287 469.694 262.618 468.395 264.533C467.221 266.004 425.621 271.233 425.169 271.274C425.053 271.289 424.936 271.296 424.819 271.294ZM419.518 229.396V230.23C419.601 231.444 421.392 260.076 420.918 264.502C420.786 265.332 420.842 266.181 421.082 266.986C421.323 267.791 421.742 268.532 422.308 269.154C422.654 269.525 423.078 269.816 423.549 270.007C424.02 270.197 424.527 270.282 425.035 270.255C428.03 269.915 465.77 264.975 467.592 263.822C468.65 262.167 469.091 260.192 468.837 258.244C468.374 256.402 459.801 224.168 459.708 223.838L459.513 223.077L460.285 223.2C471.338 224.95 483.359 226.144 484.337 225.104C485.15 223.262 490.954 206.702 492.076 203.491L481.043 200.888L476.556 207.732L476.165 207.577C475.908 207.464 450.651 197.08 442.655 197.08C434.658 197.08 414.074 207.443 411.419 209.389L398.142 219.753L395.055 213.485L387.264 217.869C387.12 230.662 387.706 244.319 388.952 245.204C390.536 245.688 405.511 237.63 418.798 229.839L419.518 229.396Z" fill="#43587E"/>
<path d="M476.602 206.605L476.216 207.559L482.245 210.001L482.631 209.047L476.602 206.605Z" fill="#43587E"/>
<path d="M444.383 226.607L444.229 225.588L456.661 223.735L445.618 222.212L445.762 221.193L463.886 223.684L444.383 226.607Z" fill="#43587E"/>
<path d="M390.54 226.941L388.603 229.143L389.375 229.823L391.313 227.621L390.54 226.941Z" fill="#43587E"/>
<path d="M397.924 218.551L392.505 224.709L393.277 225.389L398.697 219.231L397.924 218.551Z" fill="#43587E"/>
<path d="M431.868 261.877L431.292 261.023C437.879 256.607 448.016 242.981 453.481 235.293L454.315 235.88C448.84 243.629 438.61 257.369 431.868 261.877Z" fill="#43587E"/>
<path d="M455.848 233.688L454.994 233.101C455.92 231.773 456.456 230.971 456.456 230.971L457.31 231.547C457.31 231.547 456.775 232.35 455.848 233.688Z" fill="#43587E"/>
<path d="M427.752 262.361L427.135 261.538C428.629 260.355 430.033 259.061 431.334 257.668L432.075 258.378C430.738 259.814 429.293 261.146 427.752 262.361Z" fill="#43587E"/>
<path d="M433.474 256.896L432.723 256.196C436.767 251.791 440.719 246.717 440.75 246.666L441.574 247.293C441.532 247.345 437.56 252.46 433.474 256.896Z" fill="#43587E"/>
<path d="M386.769 217.54L385.637 191.892C385.637 191.892 381.037 183.093 380.934 182.403C381.466 178.785 382.208 175.201 383.157 171.669C383.651 170.177 386.244 171.669 387.572 174.334C388.899 177 388.251 180.623 388.251 180.623C388.251 180.623 391.277 185.151 391.812 187.199C392.054 188.893 391.899 190.619 391.359 192.242L395.291 212.723L386.769 217.54Z" fill="white"/>
<path d="M386.285 218.404L385.122 192.057C383.98 189.865 380.532 183.216 380.429 182.506C380.296 181.631 382.251 172.79 382.673 171.535C382.747 171.278 382.898 171.05 383.106 170.882C383.314 170.715 383.569 170.615 383.836 170.598C385.133 170.506 386.985 172.06 388.025 174.139C388.869 176.16 389.133 178.377 388.786 180.54C389.352 181.394 391.812 185.202 392.306 187.106C392.584 188.847 392.443 190.629 391.895 192.304L395.847 213.021L386.285 218.404ZM383.96 171.627H383.908C383.785 171.627 383.702 171.679 383.64 171.864C382.718 175.325 381.983 178.832 381.438 182.372C381.572 182.938 384.361 188.393 386.08 191.686L386.141 191.902L387.232 216.685L394.715 212.486L390.824 192.232V192.108C391.329 190.581 391.477 188.957 391.256 187.364C390.752 185.418 387.798 180.983 387.768 180.942L387.654 180.767V180.571C387.654 180.571 388.251 177.051 387.016 174.602C386.162 172.729 384.659 171.627 383.96 171.627Z" fill="#43587E"/>
<path d="M386.234 181.806L385.205 181.672C385.37 180.458 384.372 176.372 383.888 174.468C383.785 174.025 383.703 173.665 383.641 173.439C383.581 173.201 383.569 172.954 383.606 172.712C383.643 172.47 383.729 172.237 383.857 172.029C384.182 171.565 384.665 171.236 385.216 171.103L385.442 172.132C385.314 172.145 385.191 172.184 385.08 172.249C384.969 172.313 384.873 172.4 384.798 172.504C384.723 172.608 384.671 172.727 384.645 172.852C384.62 172.978 384.621 173.108 384.65 173.233C384.701 173.47 384.783 173.82 384.897 174.262C385.638 177.185 386.409 180.509 386.234 181.806Z" fill="#43587E"/>
<path d="M480.868 199.2C480.868 199.2 498.642 169.003 500.268 168.128C501.895 167.254 514.337 167.583 514.337 167.583C514.337 167.583 519.133 160.934 519.782 161.696L520.44 162.468C520.44 162.468 522.18 161.439 522.725 162.025L523.271 162.571C523.271 162.571 524.475 161.593 525.123 161.922C525.772 162.252 525.782 163.23 525.782 163.23C525.782 163.23 527.089 162.468 526.811 163.878C526.533 165.288 522.447 172.276 520.821 173.254C519.195 174.232 502.502 174.283 502.502 174.283L493.455 201.104L480.868 199.2Z" fill="white"/>
<path d="M493.754 201.618L480.045 199.56L480.426 198.901C483.41 193.837 498.354 168.54 500.032 167.644C501.709 166.749 511.939 166.986 514.08 167.037C515.747 164.732 518.526 161.14 519.607 161.099C519.713 161.09 519.82 161.107 519.919 161.148C520.017 161.19 520.104 161.254 520.173 161.336L520.564 161.788C521.254 161.459 522.468 161.017 523.096 161.634L523.322 161.871C523.603 161.633 523.937 161.469 524.296 161.392C524.655 161.314 525.028 161.327 525.381 161.428C525.58 161.536 525.756 161.682 525.897 161.859C526.038 162.036 526.143 162.239 526.204 162.457C526.337 162.428 526.475 162.426 526.61 162.451C526.744 162.476 526.872 162.527 526.986 162.601C527.326 162.848 527.429 163.301 527.285 163.929C526.924 165.504 522.808 172.564 521.048 173.624C519.442 174.591 506.341 174.653 502.841 174.653L493.754 201.618ZM481.702 198.798L493.023 200.476L502.049 173.717H502.419C508.811 173.717 519.37 173.47 520.471 172.811C521.954 171.926 525.926 165.082 526.225 163.764C526.225 163.682 526.225 163.61 526.225 163.559C526.135 163.586 526.048 163.624 525.967 163.672L525.195 164.125V163.229C525.195 163.054 525.123 162.529 524.825 162.375C524.526 162.221 524.002 162.581 523.528 162.972L523.168 163.26L522.293 162.396C521.696 162.401 521.113 162.58 520.616 162.91L520.255 163.116L519.473 162.21C518.691 162.694 516.458 165.432 514.677 167.891L514.523 168.108H514.245C509.5 167.984 501.545 168.005 500.443 168.591C499.27 169.446 488.731 186.88 481.702 198.798Z" fill="#43587E"/>
<path d="M515.758 171.309L515.089 170.537C515.665 170.022 518.403 165.144 519.988 162.18L520.894 162.663C520.194 164.012 516.664 170.568 515.758 171.309Z" fill="#43587E"/>
<path d="M522.836 162.341L517.711 171.714L518.614 172.208L523.739 162.834L522.836 162.341Z" fill="#43587E"/>
<path d="M525.345 162.98L520.443 171.261L521.329 171.785L526.23 163.504L525.345 162.98Z" fill="#43587E"/>
<path d="M383.754 216.325L386.255 223.766L399.14 214.792L396.042 208.143L383.754 216.325Z" fill="white"/>
<path d="M385.988 224.579L383.137 216.119L396.259 207.381L399.789 214.966L385.988 224.579ZM384.361 216.593L386.523 223.004L398.492 214.668L395.847 208.905L384.361 216.593Z" fill="#43587E"/>
<path d="M460.974 169.394C460.946 172.242 460.552 175.075 459.801 177.823C458.628 181.569 461.911 184.842 460.974 186.057C459.78 187.169 458.44 188.114 456.991 188.866C456.991 188.866 455.592 195.186 453.245 196.071C450.898 196.956 444.353 194.197 444.353 194.197C444.353 194.197 438.497 186.705 442.48 180.159C446.463 173.614 460.974 169.394 460.974 169.394Z" fill="white"/>
<path d="M452.009 196.791C449.148 196.791 444.733 194.929 444.146 194.733L444.023 194.682L443.951 194.579C443.694 194.26 437.92 186.726 442.037 179.954C446.153 173.182 460.233 169.127 460.83 168.952L461.488 168.767V169.446C461.467 172.347 461.065 175.233 460.294 178.029C459.667 180.026 460.428 181.899 461.035 183.412C461.55 184.668 461.951 185.666 461.375 186.386C460.208 187.515 458.884 188.468 457.444 189.217C457.135 190.503 455.776 195.68 453.44 196.616C452.978 196.761 452.493 196.821 452.009 196.791ZM444.682 193.796C446.544 194.579 451.341 196.297 453.059 195.608C454.778 194.918 456.147 190.4 456.486 188.712L456.538 188.486L456.744 188.373C458.139 187.664 459.427 186.763 460.572 185.697C460.778 185.439 460.408 184.534 460.089 183.741C459.45 182.167 458.576 180.016 459.306 177.669C459.993 175.204 460.373 172.663 460.439 170.105C457.557 171.021 446.267 174.921 442.942 180.396C439.412 186.201 444.023 192.922 444.682 193.796Z" fill="#43587E"/>
<path d="M456.754 181.003C456.476 181.878 455.961 182.485 455.611 182.372C455.261 182.259 455.189 181.466 455.467 180.591C455.745 179.717 456.26 179.109 456.61 179.223C456.959 179.336 457.032 180.139 456.754 181.003Z" fill="#43587E"/>
<path d="M455.221 176.887L454.377 176.29C454.818 175.642 455.488 175.186 456.252 175.014C457.017 174.842 457.818 174.967 458.494 175.364L457.979 176.259C457.526 175.991 456.988 175.907 456.475 176.024C455.962 176.141 455.513 176.45 455.221 176.887Z" fill="#43587E"/>
<path d="M455.385 189.731C454.38 189.684 453.414 189.336 452.61 188.732C451.806 188.128 451.202 187.296 450.877 186.345L451.906 186.067C452.172 186.817 452.659 187.47 453.301 187.94C453.944 188.41 454.713 188.675 455.508 188.702L455.385 189.731Z" fill="#43587E"/>
<path d="M465.894 158.392C465.894 158.392 468.467 164.485 465.421 168.457C462.374 172.43 454.655 172.677 449.983 178.749C445.31 184.822 447.173 192.798 448.347 195.371C449.52 197.944 447.636 207.783 444.364 209.182C441.091 210.582 435.698 211.529 437.159 214.802C438.621 218.075 440.195 223.694 438.796 226.504C437.396 229.313 428.504 234.233 421.474 231.65C414.445 229.066 414.682 223.92 416.555 220.411C418.428 216.901 414.682 218.538 410.699 212.918C406.716 207.299 401.807 197.481 408.126 192.551C414.445 187.621 419.365 185.995 419.838 181.312C420.311 176.629 417.893 165.514 423.955 160.831C430.017 156.148 433.485 157.26 433.485 157.26C433.485 157.26 439.238 150.879 445.568 150.879C451.897 150.879 454.46 154.862 454.46 154.862C454.46 154.862 462.374 148.563 465.894 158.392Z" fill="#43587E"/>
<path d="M425.694 232.905C424.183 232.917 422.681 232.663 421.258 232.154C418.171 231.022 416.174 229.313 415.32 227.09C414.953 225.951 414.83 224.748 414.958 223.559C415.085 222.369 415.461 221.219 416.061 220.184C416.853 218.712 416.627 218.579 415.186 217.714C413.218 216.621 411.527 215.089 410.246 213.237C407.776 209.759 400.324 197.964 407.776 192.17C409.546 190.791 411.213 189.658 412.675 188.67C416.462 186.118 418.963 184.42 419.282 181.281C419.365 179.855 419.365 178.425 419.282 176.999C419.087 171.576 418.809 164.155 423.636 160.44C428.864 156.416 432.26 156.539 433.3 156.714C434.411 155.551 439.681 150.385 445.557 150.385C447.244 150.305 448.927 150.604 450.484 151.259C452.04 151.915 453.43 152.91 454.552 154.172C455.582 153.441 458.525 151.764 461.438 152.587C463.62 153.215 465.287 155.109 466.398 158.206C466.573 158.618 469.002 164.659 465.863 168.776C464.422 170.66 462.014 171.74 459.462 172.893C456.374 174.262 452.916 175.826 450.405 179.068C445.845 184.996 447.791 192.87 448.83 195.154C449.664 196.986 449.139 201.793 447.729 205.446C447.122 207.011 446.082 209.018 444.641 209.656C443.952 209.954 443.17 210.222 442.418 210.489C440.36 211.21 438.116 212.012 437.581 213.227C437.495 213.447 437.456 213.683 437.469 213.919C437.481 214.155 437.544 214.386 437.653 214.596C439.29 218.424 440.741 223.858 439.279 226.74C438.044 229.107 431.869 232.905 425.694 232.905ZM432.456 157.682C431.128 157.682 428.339 158.145 424.222 161.263C419.817 164.649 420.105 171.761 420.27 176.958C420.364 178.432 420.364 179.91 420.27 181.384C419.91 185.007 417.111 186.9 413.22 189.525C411.769 190.554 410.133 191.583 408.373 192.983C401.642 198.211 408.723 209.357 411.049 212.64C412.245 214.378 413.831 215.813 415.68 216.829C417.131 217.704 418.191 218.332 416.936 220.668C416.405 221.573 416.07 222.579 415.953 223.622C415.836 224.664 415.94 225.72 416.256 226.72C416.997 228.654 418.788 230.157 421.577 231.186C428.267 233.636 436.953 228.912 438.26 226.287C439.444 223.92 438.26 218.918 436.614 214.966C436.448 214.626 436.356 214.256 436.344 213.878C436.331 213.5 436.399 213.124 436.542 212.774C437.252 211.148 439.629 210.304 441.976 209.481C442.758 209.203 443.489 208.945 444.137 208.668C445.053 208.277 445.969 206.99 446.72 205.035C448.13 201.391 448.49 196.945 447.852 195.545C446.669 192.931 444.652 184.76 449.551 178.399C452.216 174.931 455.818 173.315 458.998 171.895C461.53 170.752 463.722 169.775 464.999 168.097C467.829 164.402 465.431 158.598 465.4 158.546C464.371 155.767 462.961 154.09 461.119 153.565C458.031 152.68 454.758 155.242 454.727 155.263L454.285 155.613L453.976 155.139C453.873 154.985 451.455 151.393 445.516 151.393C439.578 151.393 433.876 157.568 433.825 157.568L433.598 157.815L433.279 157.712C433 157.67 432.717 157.659 432.435 157.682H432.456Z" fill="#43587E"/>
<path d="M479.932 196.554L477.832 201.937L493.043 207.32L495.153 198.89L479.932 196.554Z" fill="white"/>
<path d="M493.403 207.999L477.152 202.246L479.602 195.978L495.791 198.469L493.403 207.999ZM478.501 201.628L492.683 206.651L494.515 199.313L480.24 197.12L478.501 201.628Z" fill="#43587E"/>
<path d="M427.669 358.559C427.669 358.559 397.586 369.108 397.957 371.28C398.327 373.451 405.387 392.502 408.248 395.589C411.11 398.677 412.427 400.488 412.962 397.946C413.497 395.404 412.787 392.327 412.787 391.051C412.787 389.774 414.238 375.273 414.784 374.584C415.329 373.894 431.755 367.966 431.755 367.966L427.669 358.559Z" fill="white"/>
<path d="M412.191 399.665C411.357 399.665 410.441 398.636 408.908 397.01L407.878 395.981C404.883 392.8 397.741 373.452 397.401 371.414C397.298 370.745 397.113 369.633 412.448 363.664C419.848 360.782 427.392 358.137 427.464 358.117L427.917 357.952L432.445 368.244L431.931 368.429C425.827 370.621 415.885 374.306 415.155 374.913C414.723 375.85 413.302 389.826 413.302 391.061C413.302 391.411 413.364 391.946 413.436 392.553C413.731 394.377 413.731 396.236 413.436 398.06C413.302 398.698 413.066 399.459 412.407 399.634C412.336 399.654 412.264 399.664 412.191 399.665ZM398.472 371.27C398.945 373.596 405.892 392.286 408.671 395.24L409.7 396.269C410.668 397.298 411.861 398.657 412.232 398.595C412.232 398.595 412.386 398.492 412.53 397.802C412.801 396.098 412.801 394.361 412.53 392.656C412.452 392.121 412.403 391.581 412.386 391.041C412.386 390.145 413.755 375.191 414.445 374.234C414.98 373.513 424.891 369.87 431.128 367.627L427.423 359.187C413.879 363.952 399.357 369.726 398.472 371.27Z" fill="#43587E"/>
<path d="M409.926 376.004L406.55 366.576C401.631 368.635 397.823 370.508 397.957 371.28C398.317 373.461 405.387 392.501 408.248 395.589C411.11 398.677 412.427 400.488 412.962 397.946C413.497 395.404 412.787 392.326 412.787 391.05C412.787 389.774 414.238 375.273 414.784 374.583L409.926 376.004Z" fill="white"/>
<path d="M412.189 399.665C411.356 399.665 410.44 398.635 408.906 397.009L407.877 395.98C404.882 392.8 397.74 373.451 397.4 371.413C397.307 370.837 397.163 369.972 406.302 366.144L406.807 365.928L410.203 375.407L416.121 373.657L415.195 374.902C414.721 375.931 413.301 389.856 413.301 391.091C413.301 391.441 413.363 391.966 413.435 392.584C413.73 394.407 413.73 396.266 413.435 398.09C413.301 398.728 413.064 399.49 412.406 399.665C412.334 399.674 412.261 399.674 412.189 399.665ZM398.47 371.269C398.944 373.595 405.891 392.285 408.67 395.239L409.699 396.268C410.666 397.297 411.86 398.656 412.231 398.594C412.231 398.594 412.385 398.491 412.529 397.802C412.8 396.097 412.8 394.36 412.529 392.656C412.45 392.12 412.402 391.581 412.385 391.04C412.385 390.268 413.414 378.926 414.165 375.293L409.678 376.621L406.313 367.245C399.736 370.014 398.645 370.971 398.47 371.269Z" fill="#43587E"/>
<path d="M432.023 392.656C432.023 392.656 423.429 422.266 423.707 423.882C423.985 425.498 432.177 427.999 435.316 428.935C438.455 429.872 446.442 429.511 448.572 428.647C450.702 427.782 452.04 426.074 450.363 425.446C448.685 424.818 444.074 423.666 444.074 423.666L437.344 414.815L443.92 395.167L432.023 392.656Z" fill="white"/>
<path d="M440.997 429.985C439.044 430.04 437.09 429.854 435.182 429.429C430.85 428.204 423.532 425.858 423.203 423.974C422.915 422.317 430.088 397.473 431.529 392.512L431.663 392.049L444.589 394.786L437.91 414.722L444.373 423.202C445.248 423.429 449.025 424.406 450.548 424.962C450.847 425.035 451.113 425.203 451.308 425.441C451.503 425.678 451.616 425.973 451.629 426.28C451.629 427.432 450.198 428.544 448.757 429.13C446.225 429.785 443.612 430.072 440.997 429.985ZM432.383 393.253C428.987 404.975 424.15 422.461 424.211 423.799C424.345 424.551 428.585 426.496 435.46 428.441C438.548 429.305 446.308 429.007 448.377 428.173C449.838 427.576 450.61 426.702 450.6 426.29C450.6 426.156 450.466 426.033 450.188 425.93C448.552 425.322 444.013 424.17 443.951 424.159H443.776L436.767 414.948L436.85 414.691L443.251 395.589L432.383 393.253Z" fill="#43587E"/>
<path d="M450.394 425.446C448.716 424.828 444.105 423.665 444.105 423.665L437.375 414.814L435.81 418.931L425.518 415.669C424.417 420.331 423.604 423.357 423.697 423.902C423.985 425.518 432.167 428.019 435.306 428.955C438.445 429.892 446.431 429.532 448.562 428.667C450.692 427.803 452.04 426.074 450.394 425.446Z" fill="white"/>
<path d="M440.998 429.985C439.044 430.04 437.091 429.854 435.183 429.429C430.85 428.204 423.532 425.858 423.203 423.974C423.121 423.48 423.409 422.245 424.232 418.725C424.459 417.778 424.726 416.667 425.004 415.525L425.128 414.979L435.419 418.272L437.138 413.765L444.342 423.202C445.217 423.429 448.994 424.406 450.518 424.962C450.816 425.035 451.083 425.203 451.277 425.441C451.472 425.678 451.585 425.973 451.598 426.28C451.598 427.432 450.168 428.544 448.727 429.13C446.204 429.782 443.602 430.069 440.998 429.985ZM425.91 416.307L425.261 418.972C424.824 420.56 424.48 422.171 424.232 423.799C424.366 424.551 428.606 426.496 435.481 428.441C438.569 429.305 446.329 429.007 448.397 428.173C449.859 427.576 450.631 426.702 450.62 426.29C450.62 426.156 450.487 426.033 450.209 425.93C448.572 425.322 444.034 424.17 443.972 424.159H443.797L437.509 415.926L436.109 419.61L425.91 416.307Z" fill="#43587E"/>
<path d="M295.161 285.857C281.947 288.286 270.451 287.336 260.673 283.006C250.77 278.573 242.399 271.312 236.611 262.134C230.353 252.529 225.969 240.916 223.458 227.296L203.615 119.612C201.028 105.574 200.843 92.8809 203.059 81.5324C205.275 70.1838 210.188 60.7428 217.797 53.2091C225.393 45.6617 235.98 40.6427 249.558 38.1521C262.951 35.6889 274.495 36.6289 284.19 40.972C293.885 45.3152 301.776 52.3995 307.862 62.2248C313.975 72.0364 318.325 83.9613 320.912 97.9994L340.754 205.683C343.266 219.33 343.307 231.746 340.878 242.93C338.751 253.564 333.527 263.333 325.862 271.006C318.246 278.54 308.013 283.49 295.161 285.857ZM287.782 245.513C292.674 244.607 295.896 242.274 297.446 238.514C299.054 234.442 299.781 230.075 299.577 225.701C299.479 221.308 299.049 216.928 298.29 212.6L278.736 106.696C277.879 102.134 276.724 97.6341 275.277 93.2239C273.969 88.9573 271.758 85.0224 268.794 81.6867C265.98 78.6335 262.042 77.57 256.979 78.4963C251.915 79.4225 248.567 81.824 246.934 85.7006C245.266 89.8596 244.562 94.3424 244.875 98.8124C245.08 103.453 245.596 108.074 246.419 112.645L265.922 218.548C266.75 222.867 267.906 227.116 269.38 231.259C270.769 235.454 273.107 239.272 276.214 242.415C279.192 245.352 283.048 246.384 287.782 245.513Z" fill="#43587E"/>
<path d="M281.607 287.668C274.342 287.772 267.137 286.348 260.457 283.49C250.474 278.999 242.031 271.673 236.178 262.422C229.911 252.83 225.465 241.046 222.953 227.43L203.111 119.705C200.527 105.656 200.342 92.7813 202.555 81.4293C204.479 70.6072 209.665 60.6315 217.416 52.8385C225.053 45.2637 235.828 40.1589 249.445 37.6477C262.886 35.1776 274.629 36.1348 284.375 40.5088C294.122 44.8829 302.191 52.0975 308.366 61.9468C314.541 71.7961 318.894 83.8788 321.478 97.9066L341.3 205.591C343.821 219.238 343.862 231.845 341.423 243.043C339.251 253.769 333.972 263.618 326.243 271.366C318.606 278.941 308.191 283.984 295.295 286.361C290.782 287.213 286.2 287.651 281.607 287.668ZM263.308 37.3389C258.718 37.365 254.14 37.8059 249.63 38.6563C236.25 41.1263 225.629 46.1488 218.137 53.5692C210.536 61.2193 205.452 71.0074 203.563 81.6249C201.371 92.8533 201.567 105.595 204.129 119.52L223.972 227.204C226.463 240.717 230.857 252.378 237.053 261.856C242.8 270.936 251.089 278.126 260.889 282.533C270.522 286.804 282.029 287.751 295.079 285.353C307.769 283.006 317.999 278.066 325.481 270.635C333.068 263.036 338.25 253.372 340.384 242.847C342.792 231.784 342.751 219.32 340.26 205.796L320.417 98.0919C317.855 84.1876 313.491 72.2078 307.439 62.4923C301.912 53.2686 293.725 45.9319 283.953 41.4454C277.441 38.6257 270.403 37.2259 263.308 37.3389ZM284.694 246.316C283.065 246.353 281.445 246.06 279.932 245.453C278.42 244.846 277.046 243.939 275.895 242.786C272.739 239.595 270.359 235.721 268.937 231.464C267.438 227.29 266.262 223.006 265.418 218.651L245.863 112.748C245.037 108.159 244.514 103.521 244.299 98.8638C243.969 94.3059 244.673 89.7324 246.357 85.4843C248.045 81.4602 251.554 78.9284 256.783 77.961C262.011 76.9935 266.148 78.1256 269.071 81.3058C272.082 84.6998 274.328 88.701 275.658 93.0386C277.118 97.4671 278.281 101.989 279.137 106.572L298.691 212.476C299.456 216.832 299.889 221.239 299.988 225.66C300.189 230.104 299.449 234.54 297.816 238.679C296.201 242.6 292.825 245.06 287.772 245.986C286.758 246.188 285.728 246.298 284.694 246.316ZM260.303 78.6814C259.215 78.6874 258.13 78.7907 257.061 78.9902C252.203 79.8856 248.951 82.2115 247.397 85.9063C245.749 89.9916 245.045 94.3964 245.338 98.7917C245.544 103.405 246.064 107.999 246.892 112.542L266.395 218.445C267.218 222.737 268.37 226.959 269.843 231.073C271.205 235.196 273.498 238.95 276.543 242.045C279.415 244.875 283.027 245.832 287.607 244.998C292.362 244.123 295.388 241.911 296.87 238.309C298.426 234.299 299.127 230.008 298.928 225.711C298.833 221.342 298.403 216.986 297.642 212.682L278.087 106.778C277.23 102.248 276.079 97.7787 274.639 93.3988C273.353 89.2115 271.18 85.3503 268.268 82.0777C267.259 80.9776 266.026 80.1056 264.652 79.5199C263.278 78.9342 261.796 78.6484 260.303 78.6814Z" fill="#43587E"/>
<path d="M289.264 287.216C276.049 289.658 264.549 288.708 254.765 284.365C244.867 279.928 236.5 272.667 230.713 263.493C224.456 253.887 220.071 242.274 217.56 228.655L197.717 120.971C195.138 106.933 194.952 94.2394 197.162 82.8909C199.371 71.5424 204.277 62.1013 211.879 54.5676C219.474 47.0202 230.061 42.0012 243.64 39.5106C257.026 37.0474 268.57 37.9908 278.272 42.3409C287.974 46.6909 295.864 53.7717 301.943 63.5833C308.057 73.4018 312.407 85.3301 314.993 99.3682L334.826 207.042C337.337 220.689 337.378 233.104 334.949 244.288C332.812 254.926 327.577 264.694 319.903 272.364C312.328 279.898 302.115 284.849 289.264 287.216ZM281.833 246.872C286.725 245.973 289.946 243.643 291.497 239.883C293.104 235.807 293.83 231.437 293.627 227.06C293.532 222.666 293.098 218.286 292.331 213.958L272.828 108.055C271.971 103.492 270.812 98.9914 269.359 94.5825C268.056 90.3158 265.848 86.3806 262.886 83.0452C260.072 79.992 256.134 78.9285 251.07 79.8548C246.007 80.781 242.659 83.1825 241.026 87.0591C239.362 91.2193 238.658 95.7011 238.967 100.171C239.191 104.807 239.713 109.424 240.532 113.993L260.086 219.886C260.913 224.205 262.069 228.454 263.544 232.597C264.903 236.794 267.209 240.622 270.285 243.784C273.27 246.707 277.119 247.736 281.833 246.872Z" fill="#ED5735"/>
<path d="M275.72 289.038C268.449 289.141 261.239 287.71 254.559 284.839C244.575 280.355 236.131 273.031 230.281 263.781C224.013 254.179 219.567 242.395 217.046 228.789L197.213 121.064C194.63 107.026 194.445 94.1402 196.657 82.7882C198.582 71.9661 203.767 61.9904 211.519 54.1974C219.155 46.6328 229.931 41.5178 243.547 39.0065C256.978 36.5365 268.731 37.4936 278.478 41.8677C288.435 46.4348 296.777 53.9084 302.406 63.3057C308.582 73.1344 312.945 85.2377 315.529 99.2655L335.361 206.95C337.883 220.607 337.913 233.204 335.485 244.402C333.312 255.127 328.033 264.977 320.304 272.725C312.667 280.3 302.252 285.343 289.356 287.72C284.86 288.572 280.296 289.013 275.72 289.038ZM257.41 38.6978C252.82 38.7224 248.242 39.1668 243.732 40.0254C230.353 42.4955 219.721 47.5076 212.239 54.9281C204.638 62.5782 199.554 72.3663 197.666 82.9838C195.474 94.2122 195.659 106.964 198.222 120.878L218.064 228.562C220.555 242.076 224.95 253.736 231.145 263.215C236.889 272.3 245.179 279.494 254.981 283.902C264.615 288.163 276.121 289.11 289.171 286.712C301.861 284.375 312.091 279.425 319.573 271.994C327.16 264.394 332.342 254.73 334.476 244.206C336.884 233.142 336.843 220.689 334.352 207.155L314.541 99.4611C311.978 85.5465 307.604 73.577 301.563 63.8512C295.521 54.1253 287.627 47.096 278.076 42.8043C271.556 39.9869 264.512 38.5872 257.41 38.6978ZM278.756 247.685C277.126 247.721 275.505 247.425 273.993 246.817C272.48 246.208 271.107 245.299 269.956 244.144C266.798 240.955 264.418 237.081 262.999 232.823C261.514 228.661 260.351 224.391 259.52 220.051L239.966 114.148C239.139 109.556 238.617 104.914 238.401 100.254C238.088 95.6918 238.809 91.1181 240.511 86.8741C242.199 82.85 245.708 80.3182 250.937 79.3507C256.165 78.3833 260.302 79.5154 263.225 82.7059C266.232 86.0985 268.478 90.0956 269.812 94.4283C271.297 98.856 272.486 103.377 273.373 107.962L292.928 213.866C293.692 218.221 294.125 222.629 294.224 227.05C294.425 231.497 293.685 235.937 292.053 240.079C290.437 243.99 287.061 246.45 282.008 247.376C280.936 247.581 279.847 247.685 278.756 247.685ZM254.405 80.0506C253.317 80.0546 252.231 80.1614 251.163 80.3696C246.295 81.265 243.053 83.591 241.499 87.2755C239.856 91.3621 239.152 95.7658 239.441 100.161C239.655 104.774 240.178 109.368 241.005 113.911L260.508 219.814C261.33 224.105 262.479 228.327 263.946 232.443C265.309 236.567 267.605 240.321 270.656 243.414C273.527 246.244 277.14 247.211 281.72 246.367C286.464 245.493 289.5 243.28 290.982 239.678C292.547 235.67 293.248 231.378 293.041 227.08C292.946 222.711 292.515 218.355 291.754 214.051L272.344 108.147C271.489 103.617 270.337 99.1476 268.896 94.768C267.605 90.5827 265.433 86.7224 262.525 83.4469C261.498 82.3273 260.24 81.4439 258.838 80.8575C257.436 80.2712 255.924 79.9959 254.405 80.0506Z" fill="#43587E"/>
<path d="M223.416 151.435C223.416 151.435 232.514 159.586 233.841 159.586C235.169 159.586 236.497 155.603 238.586 158.443C240.675 161.284 238.586 164.516 238.586 164.516C238.586 164.516 246.933 173.624 245.605 175.332C244.277 177.041 238.02 180.643 238.02 180.643L236.692 196.575L219.618 191.83L219.433 185.954L210.51 180.067C210.51 180.067 205.775 172.101 208.997 164.33C212.218 156.56 223.416 151.435 223.416 151.435Z" fill="white"/>
<path d="M237.156 197.234L219.115 192.222L218.93 186.232L210.13 180.437L210.068 180.335C209.873 180.005 205.241 172.101 208.524 164.135C211.808 156.169 222.738 151.178 223.201 150.961L223.509 150.817L223.756 151.044C228.058 154.903 233.019 158.958 233.863 159.071C234.079 159.071 234.522 158.619 234.892 158.258C235.541 157.6 236.261 156.848 237.218 156.91C237.591 156.971 237.946 157.113 238.257 157.326C238.568 157.54 238.829 157.819 239.019 158.145C239.645 159.068 239.999 160.148 240.039 161.262C240.079 162.376 239.804 163.479 239.246 164.444C241.942 167.428 247.428 173.851 246.028 175.641C244.793 177.237 239.699 180.262 238.525 180.952L237.156 197.234ZM220.123 191.439L236.23 195.916L237.527 180.324L237.764 180.19C239.482 179.161 244.165 176.352 245.205 175.044C245.76 174.314 242.498 169.579 238.206 164.897L237.939 164.609L238.155 164.269C238.237 164.156 240.018 161.305 238.155 158.783C237.774 158.269 237.424 157.991 237.126 157.97C236.827 157.95 236.096 158.505 235.613 158.999C235.129 159.493 234.522 160.132 233.842 160.132C232.515 160.132 226.237 154.677 223.324 152.073C221.533 152.958 212.291 157.764 209.471 164.557C206.579 171.545 210.387 178.811 210.902 179.738L219.938 185.697L220.123 191.439Z" fill="#43587E"/>
<path d="M223.417 151.435C223.417 151.435 214.494 159.205 215.451 160.152C216.408 161.099 221.142 162.427 220.381 163.754C219.619 165.082 217.53 169.26 217.53 169.26C217.53 169.26 221.327 171.319 221.142 172.482C220.957 173.645 220 174.756 219.434 174.54C218.868 174.324 213.361 172.482 212.795 175.487C212.229 178.492 214.689 181.364 216.778 182.321C218.868 183.278 222.274 181.178 222.274 181.178C222.274 181.178 220 185.728 219.434 185.923C218.868 186.119 208.617 181.559 204.634 179.851C200.651 178.142 197.049 175.683 197.996 171.504C198.943 167.326 200.054 162.025 203.687 158.989C206.034 156.98 208.251 154.825 210.325 152.536C210.325 152.536 205.179 149.696 208.998 148.172C211.518 147.302 214.258 147.302 216.778 148.172C216.778 148.172 215.451 144.004 218.837 144.766C222.223 145.527 223.972 147.822 223.417 151.435Z" fill="#43587E"/>
<path d="M219.413 186.469C218.775 186.469 216.778 185.717 207.237 181.57L204.417 180.355C200.918 178.853 196.379 176.29 197.481 171.422L197.553 171.144C198.499 166.935 199.693 161.706 203.347 158.629C205.521 156.77 207.583 154.783 209.522 152.68C208.627 152.094 207.001 150.848 207.083 149.541C207.134 148.78 207.711 148.162 208.802 147.73C211.14 146.889 213.682 146.792 216.078 147.452C215.965 146.998 215.951 146.526 216.036 146.066C216.121 145.606 216.304 145.17 216.572 144.787C216.889 144.494 217.28 144.294 217.703 144.207C218.125 144.12 218.563 144.15 218.97 144.293C222.768 145.136 224.528 147.699 223.92 151.497V151.682L223.787 151.806C220.164 154.965 216.232 158.856 215.934 159.864C216.498 160.227 217.09 160.544 217.704 160.811C219.495 161.655 220.689 162.272 220.956 163.127C221.005 163.271 221.021 163.424 221.003 163.576C220.985 163.727 220.934 163.872 220.853 164.001C220.257 165.031 218.795 167.943 218.239 169.045C219.608 169.837 221.872 171.35 221.677 172.554C221.52 173.497 220.999 174.34 220.226 174.901C220.094 174.996 219.941 175.059 219.78 175.084C219.619 175.109 219.454 175.096 219.299 175.045C216.891 174.242 214.915 174.098 213.978 174.643C213.806 174.744 213.658 174.883 213.546 175.048C213.433 175.214 213.36 175.403 213.33 175.6C212.815 178.359 215.141 181.014 217.015 181.868C218.517 182.547 221.131 181.302 222.037 180.757L223.57 179.83L222.768 181.426C220.39 186.17 219.814 186.366 219.618 186.427C219.555 186.459 219.484 186.473 219.413 186.469ZM212.651 148.049C211.454 148.034 210.266 148.25 209.152 148.687C208.668 148.872 208.122 149.191 208.071 149.613C208.071 150.365 209.481 151.538 210.531 152.114L211.097 152.433L210.664 152.907C208.575 155.215 206.341 157.388 203.975 159.411C200.589 162.262 199.436 167.315 198.52 171.37L198.458 171.648C197.748 174.736 199.755 177.247 204.798 179.408L207.608 180.623C211.313 182.239 218.126 185.192 219.258 185.429C219.932 184.447 220.531 183.414 221.049 182.342C219.783 182.877 217.961 183.371 216.521 182.774C214.462 181.817 211.601 178.812 212.239 175.384C212.296 175.041 212.428 174.715 212.625 174.428C212.823 174.142 213.081 173.903 213.382 173.727C215.039 172.76 217.941 173.501 219.557 174.036C219.839 173.848 220.078 173.6 220.256 173.31C220.433 173.021 220.546 172.696 220.586 172.358C220.586 171.947 219.001 170.64 217.241 169.672L216.809 169.436L217.035 168.993C217.118 168.818 219.094 164.784 219.886 163.466C219.742 162.921 218.147 162.159 217.19 161.706C216.42 161.398 215.697 160.986 215.039 160.482C214.964 160.402 214.906 160.308 214.869 160.205C214.832 160.103 214.816 159.994 214.822 159.885C214.874 158.279 220.833 152.927 222.891 151.126C223.324 147.987 221.862 145.98 218.713 145.25C218.023 145.095 217.55 145.167 217.292 145.445C216.757 146.032 217.066 147.504 217.22 148.008L217.55 149.037L216.521 148.656C215.271 148.249 213.965 148.044 212.651 148.049Z" fill="#43587E"/>
<path d="M238.02 180.643L231.948 184.05L237.259 187.847L238.02 180.643Z" fill="#43587E"/>
<path d="M237.681 188.805L230.991 184.019L238.638 179.727L237.681 188.805ZM232.905 184.132L236.837 186.942L237.403 181.6L232.905 184.132Z" fill="#43587E"/>
<path d="M222.521 161.16C222.437 160.649 222.465 160.125 222.604 159.626C222.742 159.127 222.988 158.663 223.324 158.268C224.156 157.469 225.258 157.01 226.411 156.982V158.011C225.531 158.029 224.689 158.369 224.044 158.968C223.813 159.253 223.646 159.585 223.554 159.94C223.462 160.295 223.446 160.665 223.509 161.027L222.521 161.16Z" fill="#43587E"/>
<path d="M230.724 162.128C231.413 162.983 231.547 164.022 231.022 164.454C230.497 164.887 229.499 164.537 228.809 163.682C228.12 162.828 227.986 161.789 228.511 161.356C229.036 160.924 230.034 161.274 230.724 162.128Z" fill="#43587E"/>
<path d="M209.471 406.179C209.471 406.179 210.407 415.545 211.344 416.955C212.28 418.365 221.172 422.801 223.046 424.674C224.919 426.547 220.699 427.957 218.6 428.894C216.5 429.83 214.143 429.594 209.934 428.42C205.724 427.247 201.7 423.737 199.168 422.574C196.637 421.411 190.04 419.291 190.503 417.655C190.966 416.018 199.168 402.67 199.168 402.67L209.471 406.179Z" fill="white"/>
<path d="M215.739 429.985C213.736 429.902 211.753 429.556 209.841 428.956C207.12 428.026 204.552 426.694 202.225 425.004C201.191 424.29 200.111 423.644 198.994 423.069C198.438 422.822 197.697 422.523 196.874 422.194C192.592 420.485 189.587 419.106 190.05 417.542C190.513 415.978 197.923 403.802 198.767 402.433L198.983 402.083L209.985 405.84V406.169C210.346 409.73 211.148 415.751 211.776 416.698C212.198 417.326 215.028 419.003 217.313 420.352C219.463 421.496 221.506 422.833 223.416 424.345C223.643 424.536 223.818 424.782 223.922 425.059C224.027 425.337 224.058 425.637 224.013 425.93C223.735 427.319 221.564 428.235 219.649 429.017L218.816 429.378C217.844 429.795 216.796 430.002 215.739 429.985ZM199.426 403.298C196.153 408.639 191.367 416.677 191.038 417.799C190.801 418.633 195.494 420.506 197.213 421.206C198.057 421.545 198.808 421.844 199.374 422.101C200.548 422.705 201.676 423.393 202.75 424.16C204.986 425.786 207.453 427.069 210.068 427.968C214.411 429.172 216.51 429.295 218.384 428.462L219.238 428.101C220.576 427.535 222.819 426.588 222.994 425.745C222.994 425.672 223.046 425.446 222.686 425.086C220.825 423.646 218.849 422.362 216.778 421.247C213.464 419.292 211.416 418.046 210.912 417.285C210.006 415.916 209.183 408.464 208.987 406.602L199.426 403.298Z" fill="#43587E"/>
<path d="M301.707 410.862C301.707 410.862 311.999 424.242 312.709 424.447C314.397 425.003 321.303 417.439 322.651 416.337C326.614 413.175 330.083 409.439 332.943 405.253C334.096 403.503 337.595 397.555 334.744 395.651C331.204 393.294 326.922 398.831 323.979 400.097C322.301 400.817 317.629 402.876 317.629 402.876L301.707 410.862Z" fill="white"/>
<path d="M312.884 424.983C312.768 424.982 312.654 424.965 312.544 424.931C311.978 424.746 308.19 420.115 301.295 411.181L300.914 410.687L317.381 402.454C317.381 402.454 322.084 400.334 323.731 399.634C324.773 399.089 325.753 398.433 326.654 397.678C329.145 395.764 332.232 393.397 334.99 395.229C338.397 397.503 334.208 404.224 333.333 405.521C330.455 409.748 326.958 413.52 322.959 416.708C322.661 416.965 321.992 417.624 321.21 418.396C316.98 422.626 314.314 424.983 312.884 424.983ZM302.489 411.047C306.328 415.998 312.245 423.501 312.945 423.995C313.861 424.242 318.853 419.312 320.5 417.686C321.323 416.862 321.982 416.214 322.321 415.936C326.239 412.798 329.663 409.089 332.479 404.934C334.219 402.299 336.596 397.472 334.424 396.032C332.253 394.591 329.639 396.649 327.292 398.44C326.326 399.245 325.269 399.936 324.143 400.498C322.506 401.198 317.834 403.308 317.834 403.308L302.489 411.047Z" fill="#43587E"/>
<path d="M218.363 285.621C218.363 285.621 219.063 297.559 219.999 299C220.936 300.441 224.219 311.35 224.219 311.35L216.768 354.216L197.8 401.734L211.385 407.826L238.535 357.726C238.535 357.726 247.901 333.612 248.137 332.912C248.374 332.212 301.748 410.863 301.748 410.863L312.987 403.607L277.397 326.119L259.839 284.447L218.363 285.621Z" fill="#43587E"/>
<path d="M301.563 411.573L301.274 411.151C284.334 386.193 252.728 339.787 248.271 333.9C246.645 338.15 239.317 357.026 239.009 357.911L211.591 408.485L197.131 402.001L216.253 354.072L223.715 311.402C222.408 307.007 220.257 300.225 219.598 299.247C218.631 297.806 217.993 287.669 217.869 285.651V285.116L260.189 283.922L277.881 325.924L313.645 403.802L301.563 411.573ZM248.045 332.387C248.529 332.387 249.784 333.879 275.524 371.558C287.627 389.28 299.813 407.229 301.81 410.163L312.246 403.421L276.852 326.335L259.417 284.972L218.867 286.125C219.155 290.715 219.783 297.775 220.39 298.681C221.337 300.111 224.332 310.095 224.662 311.227V311.34V311.463L217.138 354.401L198.356 401.466L211.056 407.157L237.979 357.478C241.19 349.245 247.366 333.293 247.54 332.778L247.643 332.479L247.962 332.428L248.045 332.387Z" fill="#43587E"/>
<path d="M197.995 393.304L196.122 403.843L211.107 410.399L216.726 401.97L197.995 393.304Z" fill="white"/>
<path d="M211.292 411.037L195.546 404.152L197.604 392.563L217.488 401.754L211.292 411.037ZM196.699 403.535L210.912 409.71L215.965 402.145L198.386 394.015L196.699 403.535Z" fill="#43587E"/>
<path d="M296.55 408.289L302.643 414.382L317.617 402.907L312.008 395.888L296.55 408.289Z" fill="white"/>
<path d="M302.592 415.061L295.778 408.248L312.081 395.157L318.348 402.999L302.592 415.061ZM297.322 408.33L302.684 413.692L316.887 402.814L311.926 396.639L297.322 408.33Z" fill="#43587E"/>
<path d="M217.149 195.247C217.149 195.247 210.891 218.383 211.653 224.455C212.414 230.528 210.325 287.812 210.325 287.812C219.959 290.412 229.984 291.245 239.914 290.272C255.877 288.564 265.14 285.548 265.14 285.548C265.14 285.548 249.208 222.387 246.553 214.802C243.897 207.217 237.29 198.489 237.29 198.489L217.149 195.247Z" fill="white"/>
<path d="M232.123 291.199C224.709 291.211 217.326 290.235 210.17 288.296L209.8 288.183V287.792C209.8 287.216 211.858 230.476 211.127 224.517C210.397 218.558 216.387 196.06 216.644 195.113L216.767 194.661L237.536 197.995L237.66 198.16C237.722 198.242 244.381 207.031 247.026 214.627C249.671 222.222 265.469 284.787 265.633 285.414L265.746 285.878L265.294 286.032C265.201 286.032 255.763 289.12 239.955 290.797C237.353 291.07 234.739 291.204 232.123 291.199ZM210.85 287.421C220.308 289.9 230.129 290.695 239.862 289.768C248.214 288.969 256.48 287.436 264.563 285.188C263.091 279.353 248.611 222.089 246.11 214.956C243.712 208.092 237.876 200.177 237.012 198.942L217.57 195.855C216.716 199.107 211.529 218.98 212.208 224.425C212.898 230.229 211.055 281.895 210.85 287.421Z" fill="#43587E"/>
<path d="M217.725 189.175L215.255 196.575L240.861 203.213L241.623 194.681L217.725 189.175Z" fill="white"/>
<path d="M241.323 203.862L214.564 196.935L217.354 188.568L242.147 194.28L241.323 203.862ZM215.923 196.215L240.438 202.565L241.097 195.083L218.064 189.834L215.923 196.215Z" fill="#43587E"/>
<path d="M276.708 280.794L282.029 282.121C282.029 282.121 284.304 278.89 286.012 278.324C287.721 277.758 289.799 278.138 291.889 278.138C293.978 278.138 295.872 275.287 297.58 276.615C299.289 277.943 296.633 279.466 295.676 279.847C294.719 280.228 290.18 281.174 290.18 281.174C290.18 281.174 300.987 284.396 301.748 284.396C302.51 284.396 301.182 286.29 300.235 286.856C299.289 287.422 296.016 287.607 296.016 287.607C296.016 287.607 290.705 289.511 288.05 289.665C285.395 289.82 278.375 287.607 278.375 287.607L274.012 285.898L271.356 284.952L276.708 280.794Z" fill="white"/>
<path d="M287.782 290.231C284.859 290.231 278.519 288.173 278.283 288.111L273.888 286.392L270.368 285.137L276.615 280.228L281.833 281.535C282.471 280.68 284.303 278.354 285.868 277.84C287.258 277.479 288.704 277.385 290.129 277.562C290.715 277.562 291.312 277.624 291.909 277.624C292.731 277.509 293.512 277.194 294.184 276.708C295.336 276.008 296.654 275.226 297.909 276.214C298.166 276.378 298.372 276.61 298.505 276.884C298.638 277.159 298.691 277.465 298.661 277.768C298.444 279.281 295.913 280.31 295.892 280.32C294.701 280.691 293.492 281 292.269 281.247C296.263 282.42 301.244 283.85 301.779 283.881C301.937 283.874 302.093 283.921 302.22 284.014C302.348 284.108 302.439 284.243 302.479 284.396C302.716 285.24 301.306 286.825 300.523 287.298C299.546 287.885 296.757 288.091 296.18 288.132C293.577 289.074 290.888 289.764 288.153 290.19L287.782 290.231ZM272.478 284.797L274.248 285.425L278.633 287.144C278.633 287.144 285.538 289.367 288.081 289.202C290.746 288.761 293.365 288.072 295.902 287.144H296.046C297.386 287.11 298.714 286.882 299.988 286.464C300.566 286.05 301.044 285.512 301.388 284.89C299.535 284.519 292.372 282.399 290.067 281.71L288.111 281.123L290.108 280.711C291.364 280.444 294.781 279.682 295.522 279.404C296.263 279.126 297.58 278.282 297.652 277.665C297.652 277.593 297.652 277.377 297.292 277.068C296.612 276.543 295.871 276.934 294.719 277.624C293.894 278.21 292.928 278.566 291.919 278.653C291.302 278.653 290.695 278.653 290.087 278.581C288.787 278.424 287.469 278.504 286.197 278.818C284.931 279.24 283.11 281.555 282.471 282.42L282.276 282.708L276.862 281.349L272.478 284.797Z" fill="#43587E"/>
<path d="M223.221 205.684C223.221 205.684 215.255 212.888 217.344 219.526C219.434 226.164 269.699 289.665 269.699 289.665L280.125 279.806L236.323 206.816" fill="white"/>
<path d="M269.637 290.468L269.288 290.025C267.229 287.432 218.94 226.329 216.85 219.68C214.689 212.805 222.542 205.601 222.881 205.271L223.571 206.043C223.489 206.105 215.873 213.104 217.838 219.351C219.804 225.598 265.284 283.263 269.751 288.924L279.476 279.733L235.87 207.062L236.755 206.527L280.784 279.908L269.637 290.468Z" fill="#43587E"/>
<path d="M232.586 311.797L231.773 312.429L246.519 331.391L247.332 330.759L232.586 311.797Z" fill="white"/>
<path d="M58.9627 259.407L72.054 203.923L5.94922 188.321L14.3371 152.783L105.678 19.3999L154.049 30.8136L119.191 178.512L140.155 183.453L131.973 218.095L111.019 213.155L97.9175 268.639L58.9627 259.407ZM46.9521 161.418L80.236 169.25L104.062 68.2658L46.9521 161.418Z" fill="#43587E"/>
<path d="M98.3079 269.225L58.3343 259.819L71.4358 204.335L5.33105 188.702L13.9042 152.505L105.502 18.8135L154.718 30.433L119.818 178.101L140.772 183.041L132.374 218.651L111.41 213.711L98.3079 269.225ZM59.5796 259.026L97.536 267.99L110.638 212.476L131.592 217.426L139.578 183.813L118.614 178.863L153.431 31.1946L105.903 20.0176L14.8099 153.009L6.57638 187.94L72.6812 203.543L59.5796 259.026ZM80.6162 169.898L46.0972 161.757L105.306 65.3019L80.6162 169.898ZM47.6822 161.078L79.8855 168.663L102.867 71.2918L47.6822 161.078Z" fill="#43587E"/>
<path d="M53.6316 258.234L66.7332 202.75L0.638672 187.148L9.01627 151.62L100.357 18.2168L148.729 29.6408L113.849 177.298L134.804 182.249L126.632 216.891L105.667 211.941L92.5761 267.425L53.6316 258.234ZM41.5798 160.245L74.9049 168.108L98.7409 67.1135L41.5798 160.245Z" fill="#ED5735"/>
<path d="M92.9769 268.052L53.0135 258.614L66.1048 203.131L0 187.528L8.58344 151.332L100.13 17.6401L149.346 29.2803L114.487 176.917L135.462 181.868L127.043 217.509L106.089 212.558L92.9769 268.052ZM54.2485 257.853L92.2153 266.807L105.307 211.323L126.271 216.274L134.206 182.629L113.252 177.689L148.1 30.0213L100.583 18.8031L9.48913 151.836L1.25561 186.767L67.3604 202.369L54.2485 257.853ZM75.2851 168.725L40.7765 160.574L41.147 159.977L99.9754 64.1183L75.2851 168.725ZM42.3511 159.905L74.4824 167.49L97.4642 70.1185L42.3511 159.905Z" fill="#43587E"/>
<path d="M13.2456 156.21C13.2456 156.21 7.14252 162.169 6.69997 165.895C6.25742 169.62 1.03943 185.099 2.83022 188.084C4.621 191.069 14.1513 197.017 14.1513 197.017C14.1513 197.017 2.54205 199.992 3.42715 206.095C4.31225 212.198 8.49076 212.795 8.49076 212.795C8.49076 212.795 -0.885154 218.311 2.24358 222.325C5.37231 226.339 12.8134 225.752 14.0072 222.479C15.2011 219.207 12.978 215.028 12.978 215.028C12.978 215.028 18.937 213.248 20.4293 210.716C21.3139 209.238 21.6763 207.505 21.4585 205.796C21.4585 205.796 26.6765 206.692 29.8052 204.458C32.934 202.225 34.2719 195.196 34.2719 195.196C34.2719 195.196 45.2842 188.938 49.154 178.811C53.0237 168.684 51.6858 164.516 49.154 161.397C46.6222 158.279 28.1585 149.047 22.5083 150.22C18.8523 151.158 15.601 153.261 13.2456 156.21Z" fill="#43587E"/>
<path d="M8.65521 225.65C7.36385 225.692 6.07948 225.444 4.89675 224.924C3.71402 224.404 2.66308 223.625 1.8214 222.644C1.50721 222.256 1.28329 221.802 1.16582 221.316C1.04835 220.83 1.04026 220.324 1.14213 219.835C1.6979 216.974 5.47503 214.154 7.31727 212.949C5.89699 212.322 3.5916 210.624 2.94321 206.177C2.15074 200.795 9.97257 197.779 12.9366 196.843C10.446 195.227 3.92095 190.853 2.41833 188.342C1.17302 186.283 2.74767 179.696 4.77517 171.936C5.47502 169.271 6.08224 166.955 6.21603 165.833C6.66888 162.066 12.3912 156.365 12.8955 155.871C15.3078 152.842 18.6494 150.69 22.4052 149.747C28.251 148.522 46.8793 157.785 49.5654 161.068C52.0149 164.094 53.6822 168.355 49.6478 178.997C46.0045 188.537 36.2683 194.589 34.7349 195.525C34.4673 196.791 33.0779 202.73 30.1138 204.85C27.4894 206.723 23.5887 206.527 22.045 206.363C22.0976 207.97 21.6906 209.559 20.8717 210.943C19.5646 213.166 15.2729 214.781 13.6674 215.306C14.2437 216.593 15.4684 219.855 14.4701 222.624C13.935 224.085 12.3088 225.166 10.1064 225.516C9.62674 225.597 9.14162 225.642 8.65521 225.65ZM23.6917 150.653C23.3222 150.653 22.9535 150.687 22.5904 150.756C17.1975 151.898 13.6982 156.478 13.6571 156.519L13.6056 156.581C13.6056 156.643 7.62603 162.458 7.20406 165.957C7.05998 167.151 6.45275 169.487 5.74261 172.204C4.31204 177.679 2.15074 185.954 3.26227 187.817C4.97072 190.657 14.326 196.524 14.4187 196.575L15.4479 197.213L14.2849 197.512C14.1717 197.512 3.12847 200.445 3.99299 206.023C4.85751 211.601 8.46995 212.27 8.62433 212.291L10.0549 212.507L8.80959 213.248C8.74784 213.248 2.8403 216.788 2.22279 220.03C2.14694 220.376 2.15013 220.734 2.23211 221.078C2.31409 221.422 2.47274 221.743 2.69621 222.017C4.45612 224.271 7.63632 224.898 10.0137 224.528C11.8457 224.24 13.1734 223.406 13.5747 222.305C14.6657 219.289 12.5456 215.317 12.5456 215.275L12.2574 214.72L12.8543 214.545C12.916 214.545 18.6383 212.785 20.0586 210.428C20.8862 209.061 21.2305 207.455 21.0364 205.869L20.9026 205.138L21.6333 205.261C21.6333 205.261 26.666 206.095 29.5786 204.016C32.4912 201.937 33.8292 195.165 33.8395 195.103L33.8909 194.867L34.0967 194.753C34.1997 194.692 45.0061 188.465 48.7627 178.636C52.4266 169.044 51.4489 164.938 48.845 161.716C46.4573 158.958 30.2064 150.653 23.6917 150.653Z" fill="#43587E"/>
<path d="M25.9043 193.889L28.8889 207.741L44.2239 198.798L40.1071 192.849C40.1071 192.849 29.455 196.42 25.9043 193.889Z" fill="white"/>
<path d="M28.5297 208.534L25.123 192.705L26.2037 193.466C29.528 195.813 39.789 192.437 39.8919 192.355L40.2521 192.231L44.9658 198.962L28.5297 208.534ZM26.636 194.835L29.2398 206.939L43.4838 198.633L39.8507 193.487C38.0703 194.022 30.5366 196.256 26.636 194.835Z" fill="#43587E"/>
<path d="M25.0097 164.845L15.6338 181.374C15.6338 181.374 19.061 188.969 21.1399 191.357C23.2189 193.745 25.761 196.719 32.7595 197.46C39.758 198.201 43.9262 191.357 44.2246 186.89C44.5231 182.424 39.7477 169.168 39.7477 169.168L25.0097 164.845Z" fill="white"/>
<path d="M33.7879 198.067C33.427 198.071 33.0662 198.054 32.7072 198.016C25.5852 197.254 22.9505 194.239 20.8304 191.841L20.7584 191.759C18.6485 189.34 15.3037 181.961 15.1596 181.652L15.0566 181.415L24.7722 164.3L40.1483 168.808L40.2409 169.055C40.4364 169.6 45.0369 182.434 44.7384 186.983C44.3834 190.366 42.7531 193.487 40.1791 195.711C38.3978 197.233 36.1311 198.069 33.7879 198.067ZM16.2093 181.446C16.8063 182.743 19.7189 188.99 21.5302 191.059L21.6023 191.141C23.5989 193.426 26.0895 196.287 32.8101 196.987C34.0101 197.124 35.2254 197.012 36.38 196.657C37.5346 196.303 38.6037 195.715 39.5205 194.928C41.8863 192.891 43.3847 190.027 43.7093 186.921C43.9769 182.949 40.0042 171.484 39.3558 169.662L25.2559 165.545L16.2093 181.446Z" fill="#43587E"/>
<path d="M16.8272 182.866C16.8272 182.866 12.3606 181.085 13.4 184.801C14.4395 188.516 19.2047 188.526 19.2047 188.526L16.8272 182.866Z" fill="white"/>
<path d="M19.9867 189.041H19.1634C18.9575 189.041 14.0174 189.041 12.8647 184.925C12.6753 184.51 12.6094 184.05 12.6751 183.599C12.7409 183.148 12.9354 182.726 13.2352 182.383C14.3674 181.353 16.7139 182.259 16.9712 182.383L17.177 182.455L19.9867 189.041ZM14.7687 182.949C14.4825 182.924 14.1972 183.005 13.966 183.175C13.6469 183.463 13.7498 184.143 13.8939 184.667C14.5732 187.086 17.0947 187.755 18.4018 187.94L16.436 183.268C15.8985 183.082 15.3369 182.974 14.7687 182.949Z" fill="#43587E"/>
<path d="M40.9512 173.037C40.992 172.73 41.1164 172.439 41.3109 172.197C41.5054 171.955 41.7625 171.771 42.0543 171.665C42.3461 171.559 42.6613 171.535 42.9659 171.595C43.2704 171.656 43.5525 171.799 43.7814 172.008C46.0148 173.501 43.0301 179.007 43.0301 179.007L40.9512 173.037Z" fill="white"/>
<path d="M42.9272 180.262L40.416 173.058V172.914C40.4998 172.531 40.6679 172.171 40.9083 171.861C41.1487 171.551 41.4552 171.299 41.8054 171.123C42.1827 171.004 42.5836 170.982 42.9717 171.057C43.3599 171.133 43.7231 171.304 44.0285 171.555C46.5809 173.253 43.7815 178.626 43.4521 179.233L42.9272 180.262ZM41.4864 173.058L43.1022 177.679C43.8535 175.95 44.6872 173.253 43.4933 172.451C43.32 172.302 43.1148 172.195 42.8935 172.137C42.6723 172.08 42.4408 172.075 42.2171 172.121C41.8668 172.319 41.6054 172.643 41.4864 173.027V173.058Z" fill="#43587E"/>
<path d="M30.9991 186.211L28.8584 181.281L29.8052 180.88L31.5446 184.883L34.0558 183.875L34.4366 184.832L30.9991 186.211Z" fill="#43587E"/>
<path d="M31.8427 189.731C30.8092 189.73 29.7855 189.531 28.8271 189.144L29.2388 188.208C30.747 188.811 32.4241 188.84 33.9525 188.29C34.6956 187.93 35.3547 187.418 35.8867 186.787C36.4186 186.156 36.8116 185.419 37.0401 184.626L38.0075 184.976C37.7308 185.904 37.2627 186.763 36.6334 187.499C36.0041 188.234 35.2276 188.83 34.3539 189.247C33.5574 189.574 32.7036 189.738 31.8427 189.731Z" fill="#43587E"/>
<path d="M33.7574 178.265L32.9443 177.638C33.037 177.524 35.1262 174.838 37.9668 175.672L37.6786 176.701C35.507 176.022 33.778 178.245 33.7574 178.265Z" fill="#43587E"/>
<path d="M30.6289 172.616L29.8262 171.977C30.5977 171.044 31.6193 170.35 32.7713 169.976C33.9234 169.602 35.158 169.565 36.3306 169.868L36.0425 170.897C35.0696 170.65 34.0471 170.68 33.0906 170.984C32.134 171.288 31.2813 171.853 30.6289 172.616Z" fill="#43587E"/>
<path d="M19.3903 177.391L18.4229 177.03C18.6424 176.317 19.0072 175.658 19.4943 175.092C19.9814 174.527 20.5803 174.069 21.2531 173.747C22.4811 173.27 23.8434 173.27 25.0714 173.747L24.6597 174.694C23.6889 174.323 22.6151 174.323 21.6442 174.694C21.1032 174.964 20.6238 175.343 20.236 175.807C19.8481 176.271 19.5602 176.81 19.3903 177.391Z" fill="#43587E"/>
<path d="M25.801 180.767C26.1818 181.549 26.0686 182.383 25.554 182.63C25.0394 182.877 24.3087 182.465 23.9279 181.693C23.5471 180.921 23.6603 180.077 24.1749 179.83C24.6895 179.583 25.4202 179.995 25.801 180.767Z" fill="#43587E"/>
<path d="M99.0908 169.188C99.0908 169.188 107.592 163.414 108.199 162.807C108.806 162.2 112.46 159.72 114.127 158.392C115.795 157.064 116.258 152.474 118.079 153.246C118.458 153.382 118.804 153.595 119.096 153.872C119.388 154.148 119.619 154.482 119.776 154.852C119.932 155.222 120.011 155.621 120.006 156.023C120.001 156.425 119.912 156.822 119.747 157.188C119.139 158.557 116.103 160.996 116.103 160.996C116.103 160.996 124.46 159.318 124.913 160.234C125.156 160.815 125.269 161.443 125.244 162.072C125.219 162.701 125.057 163.317 124.769 163.878C124.162 164.639 123.4 165.545 123.4 165.545C123.4 165.545 122.793 170.691 121.877 172.389C120.961 174.087 117.472 175.127 115.043 175.127C112.614 175.127 107.592 175.734 107.592 175.734L101.973 178.008L99.0908 169.188Z" fill="white"/>
<path d="M101.653 178.687L98.4727 168.982L98.7917 168.756C102.075 166.533 107.416 162.858 107.838 162.436C108.681 161.731 109.56 161.072 110.473 160.46C111.646 159.627 112.984 158.67 113.808 158.001C114.468 157.262 114.972 156.397 115.29 155.459C115.969 153.884 116.741 152.114 118.274 152.752C118.724 152.928 119.133 153.193 119.478 153.53C119.823 153.868 120.096 154.272 120.281 154.718C120.45 155.145 120.531 155.602 120.521 156.062C120.51 156.521 120.408 156.974 120.219 157.393C119.603 158.424 118.817 159.343 117.893 160.11C124.82 158.875 125.232 159.699 125.376 159.987C125.662 160.657 125.792 161.383 125.756 162.11C125.721 162.838 125.52 163.547 125.17 164.186L123.894 165.75C123.78 166.646 123.194 171.03 122.329 172.625C121.3 174.581 117.41 175.631 115.043 175.631C112.675 175.631 108.332 176.156 107.725 176.217L101.653 178.687ZM99.6974 169.425L102.291 177.349L107.53 175.24C107.735 175.24 112.603 174.632 115.043 174.632C117.482 174.632 120.652 173.603 121.424 172.162C122.195 170.721 122.72 166.924 122.885 165.514V165.359L122.978 165.236C122.978 165.236 123.739 164.33 124.346 163.579C124.784 162.629 124.828 161.545 124.47 160.563C123.719 160.275 119.643 160.821 116.185 161.52L114.127 161.932L115.784 160.604C116.597 159.956 118.871 158.032 119.283 157.002C119.53 156.402 119.53 155.729 119.283 155.129C119.149 154.812 118.952 154.526 118.704 154.287C118.457 154.049 118.163 153.862 117.842 153.74C117.286 153.503 116.813 154.44 116.195 155.891C115.83 156.99 115.221 157.993 114.415 158.824C113.561 159.524 112.212 160.481 111.029 161.335C109.845 162.189 108.795 162.92 108.528 163.198C107.993 163.744 101.406 168.22 99.6974 169.394V169.425Z" fill="#43587E"/>
<path d="M24.752 261.064L24.3506 268.021L67.8441 264.048L65.8578 257.698L24.752 261.064Z" fill="white"/>
<path d="M23.8047 268.587L24.2575 260.59L66.2176 257.143L68.5229 264.501L23.8047 268.587ZM25.2353 261.548L24.8956 267.455L67.1541 263.596L65.4868 258.244L25.2353 261.548Z" fill="#43587E"/>
<path d="M28.1998 205.168C28.1998 205.168 20.6352 209.594 18.6283 213.031C16.6214 216.469 0.874807 241.663 2.01721 244.535C3.15961 247.406 8.31585 250.834 10.6109 250.834C12.906 250.834 33.2531 253.983 33.2531 253.983L30.0317 208.359L28.1998 205.168Z" fill="white"/>
<path d="M33.7877 254.59L33.1496 254.487C32.9438 254.487 12.8334 251.348 10.6104 251.348C8.07858 251.348 2.76796 247.798 1.54323 244.72C0.771339 242.806 5.1351 234.315 16.59 215.409C17.3413 214.184 17.897 213.258 18.1852 212.774C20.2436 209.265 27.6332 204.901 27.9419 204.716L28.3948 204.458L30.5355 208.153V208.277L33.7877 254.59ZM28.0243 205.879C26.3878 206.908 20.7067 210.479 19.0703 213.289C18.7821 213.783 18.2264 214.709 17.4751 215.944C6.94647 233.317 1.90345 242.868 2.50038 244.34C3.52956 246.923 8.49026 250.319 10.6104 250.319C12.7305 250.319 29.1358 252.83 32.6762 253.407L29.5269 208.493L28.0243 205.879Z" fill="#43587E"/>
<path d="M11.0224 247.036L10.7754 246.007C16.3227 244.617 22.8272 239.564 22.8889 239.513L23.527 240.326C23.28 240.562 16.7858 245.595 11.0224 247.036Z" fill="#43587E"/>
<path d="M17.1056 248.199L16.5498 247.334C19.2772 245.595 21.459 241.026 21.4796 240.984L22.4162 241.417C22.3133 241.622 20.0696 246.305 17.1056 248.199Z" fill="#43587E"/>
<path d="M99.0904 169.188C99.0904 169.188 31.9255 202.308 27.0472 204.593C22.1688 206.877 17.1772 217.509 18.3917 225.866C19.6061 234.223 25.3799 243.362 25.8327 244.71C26.2856 246.059 24.3095 257.472 23.8567 259.603C23.4038 261.733 23.5582 263.4 25.5343 264.306C27.5103 265.212 65.0345 260.056 66.4033 259.294C67.7721 258.532 68.9866 256.711 68.0809 253.52C67.1752 250.33 63.3672 241.973 63.3672 241.17C63.3672 240.367 56.8319 219.557 56.8319 219.557C56.8319 219.557 87.5223 193.57 91.0215 189.309C94.5208 185.048 101.962 177.916 101.962 177.916L99.0904 169.188Z" fill="white"/>
<path d="M26.6253 264.903C26.1892 264.931 25.7514 264.889 25.3285 264.779C22.8276 263.627 22.9716 261.342 23.3627 259.489C23.9905 256.597 25.7196 245.976 25.3594 244.864C25.2667 244.607 24.8756 243.835 24.3919 242.95C22.5908 239.564 18.8446 232.504 17.8874 225.938C16.6215 217.21 21.8395 206.465 26.8414 204.129C31.6477 201.875 98.1847 169.054 98.8846 168.725L99.4198 168.458L102.59 178.142L102.363 178.369C102.281 178.441 94.8913 185.573 91.4641 189.69C88.0369 193.806 60.6605 217.076 57.5009 219.773C59.1476 225.022 63.9539 240.418 63.9539 241.18C63.9539 241.54 64.9111 243.774 65.7241 245.739C66.8665 248.498 68.153 251.626 68.647 253.345C69.8512 257.596 67.484 259.294 66.7224 259.716C65.3536 260.477 33.6958 264.903 26.6253 264.903ZM98.7817 169.909C92.4316 172.996 31.8844 202.904 27.2736 205.055C22.6629 207.206 17.7331 217.684 18.9063 225.794C19.8326 232.185 23.5274 239.173 25.2976 242.466C25.6832 243.131 26.0269 243.818 26.3268 244.525C26.862 246.13 24.6904 258.203 24.3713 259.685C23.8773 261.98 24.2684 263.133 25.7607 263.802C27.9426 264.604 64.5817 259.53 66.177 258.8C66.918 258.388 68.5647 257.04 67.587 253.654C67.1135 251.986 65.8373 248.889 64.7155 246.151C63.3467 242.827 62.863 241.623 62.863 241.201C62.7704 240.408 58.9212 227.955 56.3482 219.783L56.2453 219.454L56.5129 219.227C56.8216 218.97 87.2136 193.23 90.6305 189.062C93.7181 185.254 100.089 179.089 101.386 177.844L98.7817 169.909Z" fill="#43587E"/>
<path d="M32.5431 246.964L31.9873 246.1C33.1511 245.298 34.2428 244.395 35.2498 243.403L35.96 244.155C34.9022 245.186 33.7592 246.126 32.5431 246.964Z" fill="#43587E"/>
<path d="M38.368 241.746L37.627 241.025C43.0919 235.447 50.0904 227.08 53.8264 222.5C50.111 225.248 43.9256 229.704 38.5532 233.214L37.9872 232.349C46.2207 226.998 56.4302 219.268 56.5126 219.196L59.8265 216.675L57.2433 219.958C57.1301 220.092 46.1898 233.749 38.368 241.746Z" fill="#43587E"/>
<path d="M29.0023 238.37L28.7656 237.341C31.1572 236.489 33.4296 235.334 35.5274 233.904L36.0729 234.779C32.7177 236.878 30.402 238.041 29.0023 238.37Z" fill="#43587E"/>
<path d="M37.6882 247.252L37.1016 246.408C39.4809 244.392 41.7355 242.234 43.8531 239.945L44.6044 240.655C42.4412 242.998 40.1311 245.202 37.6882 247.252Z" fill="#43587E"/>
<path d="M58.4064 215.151L57.7168 214.39C58.559 213.604 59.3272 212.743 60.0119 211.817L60.8249 212.445C60.1017 213.418 59.2923 214.324 58.4064 215.151Z" fill="#43587E"/>
<path d="M62.9241 209.389L62.0596 208.833C65.6462 202.907 68.8202 196.741 71.559 190.379L72.5058 190.781C69.7434 197.196 66.5418 203.414 62.9241 209.389Z" fill="#43587E"/>
<path d="M95.7721 170.952L94.8115 171.321L98.61 181.196L99.5705 180.826L95.7721 170.952Z" fill="#43587E"/>
<path d="M44.0083 367.883L35.8674 399.459L30.7214 407.394L27.3457 418.715L34.2927 422.091C34.2927 422.091 38.0596 418.324 40.2517 420.506C42.4439 422.688 42.6292 426.465 42.6292 426.465C42.6292 426.465 53.1269 429.635 55.3293 429.46C57.5318 429.285 60.887 429.861 61.2883 428.863C61.6897 427.864 61.8853 420.331 60.887 419.332C60.1974 418.643 52.9828 416.337 48.3823 412.385C46.3239 410.656 44.8522 405.418 44.6052 405.233C43.8127 404.636 60.887 370.086 60.887 370.086L44.0083 367.883Z" fill="white"/>
<path d="M55.1234 429.985C52.5195 429.985 43.5244 427.288 42.4746 426.979L42.1247 426.866V426.506C42.1247 426.506 41.9086 422.904 39.8914 420.887C39.171 420.166 38.1006 420.187 36.7112 420.948C35.9634 421.371 35.2718 421.886 34.6528 422.482L34.3955 422.739L26.7178 419.013L30.2891 407.137L35.435 399.263L43.6685 367.358L61.7102 369.695L61.3911 370.333C54.9999 383.27 45.5211 402.948 45.1505 405.078C45.2432 405.243 45.3461 405.541 45.5725 406.107C46.1592 407.641 47.3736 410.831 48.7527 412.015C51.8403 414.691 56.2658 416.626 58.8902 417.778C59.7403 418.082 60.5493 418.49 61.2985 418.993C62.5644 420.259 62.2042 428.081 61.8028 429.079C61.4014 430.077 59.8165 430.026 57.7993 429.974C57.0073 429.932 56.2138 429.932 55.4218 429.974L55.1234 429.985ZM43.1025 426.094C46.19 427.02 53.6311 429.099 55.2778 428.945C56.0496 428.883 56.9348 428.945 57.789 428.945C58.6432 428.945 60.6398 429.017 60.8045 428.698C61.2059 427.669 61.2471 420.465 60.5266 419.713C59.864 419.325 59.1764 418.981 58.4682 418.684C55.7924 417.511 51.3154 415.545 48.0734 412.766C46.4988 411.408 45.2638 408.176 44.5948 406.447C44.4507 406.066 44.3066 405.685 44.2449 405.562C43.8949 405.088 44.3581 402.474 60.1355 370.497L44.4301 368.439L36.2995 399.788L31.1536 407.672L27.9322 418.499L34.1691 421.525C34.7953 420.964 35.4864 420.48 36.2275 420.084C38.5123 418.818 39.8811 419.446 40.6324 420.197C42.0561 421.854 42.9205 423.917 43.1025 426.094Z" fill="#43587E"/>
<path d="M61.2879 428.863C61.679 427.834 61.8848 420.331 60.8865 419.333C60.1969 418.643 52.9823 416.338 48.3819 412.386C46.3235 410.657 44.8517 405.418 44.6047 405.233C44.5224 405.171 44.6047 404.749 44.8826 404.059L35.2803 400.375L30.7107 407.415L27.335 418.736L34.282 422.111C34.282 422.111 38.0488 418.345 40.241 420.526C42.4331 422.708 42.6184 426.486 42.6184 426.486C42.6184 426.486 53.1264 429.635 55.3289 429.46C57.5313 429.285 60.8865 429.861 61.2879 428.863Z" fill="#43587E"/>
<path d="M55.1234 429.985C52.5195 429.985 43.5244 427.288 42.4746 426.979L42.1247 426.866V426.506C42.1247 426.506 41.9086 422.904 39.8914 420.887C39.171 420.166 38.1006 420.187 36.7112 420.948C35.9634 421.371 35.2718 421.886 34.6528 422.482L34.3955 422.739L26.7178 419.013L30.2891 407.137L35.0851 399.747L45.5519 403.761L45.377 404.245C45.2774 404.511 45.1915 404.782 45.1197 405.058C45.2123 405.233 45.3255 405.521 45.5416 406.087C46.1283 407.62 47.3427 410.811 48.7218 411.994C51.8094 414.67 56.2349 416.605 58.8593 417.758C59.7094 418.061 60.5184 418.469 61.2676 418.972C62.5335 420.238 62.1733 428.06 61.7719 429.058C61.3808 430.088 59.7856 430.005 57.7684 429.954C56.9765 429.912 56.1829 429.912 55.391 429.954L55.1234 429.985ZM43.1025 426.094C46.19 427.021 53.6311 429.1 55.2778 428.945C56.0496 428.883 56.9348 428.945 57.789 428.945C58.6432 428.945 60.6398 429.017 60.8045 428.698C61.2059 427.669 61.2471 420.465 60.5266 419.713C59.864 419.325 59.1764 418.981 58.4682 418.684C55.7924 417.511 51.3154 415.545 48.0734 412.766C46.4988 411.408 45.2638 408.176 44.5948 406.447C44.461 406.077 44.3066 405.696 44.2449 405.562C44.0184 405.325 44.0596 404.975 44.2449 404.358L35.4967 400.992L31.1844 407.631L27.9631 418.458L34.2 421.484C34.8262 420.923 35.5172 420.439 36.2584 420.043C38.5432 418.777 39.912 419.405 40.6633 420.156C42.0838 421.828 42.9377 423.907 43.1025 426.094Z" fill="#43587E"/>
<path d="M74.1943 358.168L93.6357 406.684C93.6357 406.684 92.3801 414.012 93.6357 415.947C95.1614 418.915 96.5354 421.958 97.7525 425.065L108.116 422.564C108.116 422.564 107.231 418.983 110.082 419.168C111.835 419.286 113.543 419.773 115.094 420.599C115.094 420.599 123.492 416.122 125.993 414.691C128.494 413.26 129.75 411.305 129.565 410.574C129.379 409.844 126.889 404.317 124.028 404.852C121.166 405.387 115.794 407.713 113.129 407.713C110.463 407.713 104.545 405.747 103.3 403.596C102.054 401.445 93.6666 365.465 93.6666 365.465L91.2789 348.195L82.7469 318.997L74.1943 358.168Z" fill="white"/>
<path d="M97.4337 425.693L97.2691 425.282C97.2691 425.209 94.4079 418.16 93.2038 416.256C91.9996 414.352 92.895 408.022 93.1008 406.746L73.7109 358.22V358.065L82.6855 316.97L91.7835 348.103L94.1815 365.445C96.5075 375.386 102.755 401.682 103.753 403.391C104.864 405.295 110.576 407.24 113.139 407.24C115.337 406.976 117.493 406.444 119.561 405.655C120.998 405.152 122.462 404.729 123.946 404.389C127.321 403.761 129.905 409.823 130.121 410.492C130.378 411.521 128.906 413.683 126.302 415.175C123.699 416.667 115.465 421.031 115.383 421.082L115.136 421.216L114.889 421.072C113.405 420.293 111.775 419.83 110.103 419.714C109.888 419.673 109.666 419.687 109.458 419.753C109.25 419.819 109.061 419.937 108.909 420.094C108.525 420.823 108.44 421.672 108.672 422.462L108.796 422.966L97.4337 425.693ZM74.7401 358.127L94.1815 406.633V406.777C93.8419 408.753 93.1523 414.228 94.1095 415.7C95.6025 418.553 96.9356 421.488 98.1027 424.489L107.561 422.204C107.464 421.73 107.462 421.241 107.556 420.765C107.649 420.29 107.836 419.838 108.106 419.436C108.36 419.15 108.681 418.931 109.041 418.8C109.4 418.669 109.786 418.629 110.165 418.684C111.896 418.799 113.587 419.261 115.136 420.043C116.535 419.292 123.555 415.556 125.778 414.279C128.279 412.849 129.184 411.079 129.112 410.739C128.927 410.019 126.549 404.955 124.162 405.408C122.723 405.735 121.304 406.144 119.911 406.633C117.744 407.466 115.478 408.016 113.17 408.269C110.257 408.269 104.247 406.211 102.878 403.905C101.633 401.754 94.058 369.325 93.1935 365.64L90.7646 348.329L82.809 321.148L74.7401 358.127Z" fill="#43587E"/>
<path d="M129.554 410.615C129.379 409.905 126.878 404.358 124.017 404.893C121.156 405.428 115.783 407.754 113.118 407.754C110.452 407.754 104.534 405.789 103.289 403.638C103.058 403.132 102.869 402.609 102.723 402.073L93.3573 405.994L93.6352 406.674C93.6352 406.674 92.3796 414.002 93.6352 415.936C95.1609 418.904 96.5349 421.948 97.752 425.055L108.116 422.554C108.116 422.554 107.231 418.973 110.082 419.158C111.835 419.276 113.543 419.763 115.094 420.588C115.094 420.588 123.492 416.111 125.993 414.681C128.494 413.25 129.739 411.336 129.554 410.615Z" fill="#43587E"/>
<path d="M97.4332 425.693L97.2686 425.281C97.2686 425.209 94.4074 418.159 93.2033 416.255C91.9991 414.351 92.8945 408.022 93.1003 406.745L92.699 405.716L103.042 401.394L103.217 401.929C103.348 402.429 103.521 402.918 103.732 403.39C104.843 405.294 110.555 407.239 113.118 407.239C115.315 406.975 117.472 406.443 119.54 405.654C120.977 405.151 122.441 404.729 123.925 404.388C127.3 403.761 129.884 409.823 130.1 410.492C130.357 411.521 128.885 413.682 126.281 415.174C123.678 416.667 115.444 421.03 115.362 421.082L115.115 421.216L114.868 421.072C113.384 420.293 111.754 419.83 110.082 419.713C109.869 419.672 109.648 419.686 109.442 419.752C109.235 419.819 109.048 419.936 108.898 420.094C108.511 420.824 108.423 421.677 108.651 422.471L108.775 422.965L97.4332 425.693ZM94.0266 406.282L94.1707 406.632V406.776C93.8311 408.752 93.1415 414.228 94.0986 415.699C95.5917 418.553 96.9248 421.487 98.0919 424.489L107.55 422.204C107.453 421.729 107.451 421.24 107.545 420.765C107.638 420.289 107.826 419.837 108.096 419.435C108.349 419.149 108.671 418.931 109.03 418.799C109.389 418.668 109.776 418.629 110.154 418.684C111.885 418.798 113.576 419.26 115.125 420.042C116.525 419.291 123.544 415.555 125.767 414.279C128.268 412.848 129.173 411.078 129.101 410.739C128.916 410.018 126.528 404.944 124.151 405.407C122.712 405.734 121.293 406.143 119.9 406.632C117.733 407.466 115.467 408.016 113.159 408.269C110.576 408.269 104.329 406.385 102.867 403.905C102.685 403.543 102.54 403.164 102.435 402.773L94.0266 406.282Z" fill="#43587E"/>
<path d="M24.3094 268.052L11.249 371.279C23.4408 372.666 35.7149 373.195 47.9808 372.864C67.6383 372.268 72.8048 371.475 72.8048 371.475L82.9732 324.41L93.6973 365.516L98.658 363.931C98.658 363.931 93.1004 330.575 89.9202 323.422C86.74 316.269 67.8853 264.048 67.8853 264.048L24.3094 268.052Z" fill="#43587E"/>
<path d="M41.1162 373.482C31.1125 373.481 21.1168 372.914 11.1772 371.784L10.6729 371.722L23.8979 267.548H24.3096L68.1839 263.544L68.328 263.914C68.5133 264.439 87.2239 316.208 90.3526 323.257C93.4814 330.307 98.8949 362.521 99.1316 363.89L99.2037 364.322L93.2652 366.175L82.9733 326.633L73.2269 371.918L72.877 371.979C72.6609 371.979 67.4532 372.782 47.9912 373.369C45.6653 373.451 43.3599 373.482 41.1162 373.482ZM11.8255 370.827C23.8287 372.156 35.9085 372.664 47.9809 372.35C64.6641 371.845 70.9421 371.187 72.383 371.012L82.891 322.187L94.0268 364.868L98.0509 363.581C97.382 359.619 92.339 330.194 89.4264 323.628C86.4108 316.866 69.2131 269.318 67.5046 264.594L24.8242 268.494L11.8255 370.827Z" fill="#43587E"/>
</svg>
